<svg version="1.0" xmlns="http://www.w3.org/2000/svg"
 width="512.000000pt" height="512.000000pt" viewBox="0 0 512.000000 512.000000"
 preserveAspectRatio="xMidYMid meet">

<g transform="translate(0.000000,512.000000) scale(0.100000,-0.100000)"
fill="#282828" stroke="none">
<path d="M2370 4704 c-574 -54 -1123 -347 -1479 -789 -694 -861 -628 -2099
152 -2876 325 -323 720 -524 1192 -606 139 -23 498 -24 644 0 622 102 1143
438 1483 957 357 545 443 1229 234 1856 -253 757 -917 1315 -1712 1440 -96 15
-424 26 -514 18z m-815 -1863 c59 -26 122 -86 153 -145 23 -44 27 -63 27 -136
0 -73 -4 -92 -27 -136 -100 -190 -349 -227 -496 -73 -60 62 -85 134 -80 229 5
86 28 140 83 195 90 89 228 116 340 66z m1139 -6 c130 -61 198 -209 161 -348
-73 -278 -448 -316 -572 -59 -38 81 -38 183 0 264 75 154 255 217 411 143z
m1122 1 c186 -85 234 -340 92 -485 -151 -154 -396 -117 -496 73 -23 44 -27 63
-27 136 0 73 4 92 27 136 79 151 250 210 404 140z"/>
</g>
</svg>
