<?xml version="1.0" standalone="no"?>
<!DOCTYPE svg PUBLIC "-//W3C//DTD SVG 20010904//EN"
 "http://www.w3.org/TR/2001/REC-SVG-20010904/DTD/svg10.dtd">
<svg version="1.0" xmlns="http://www.w3.org/2000/svg"
 width="512.000000pt" height="512.000000pt" viewBox="0 0 512.000000 512.000000"
 preserveAspectRatio="xMidYMid meet">

<g transform="translate(0.000000,512.000000) scale(0.100000,-0.100000)"
fill="#000000" stroke="none">
<path d="M997 5109 c-382 -56 -719 -301 -881 -642 -39 -83 -69 -167 -93 -265
-15 -61 -17 -207 -20 -1587 -3 -1039 0 -1546 7 -1602 58 -444 361 -814 780
-952 175 -58 61 -55 1715 -58 1039 -3 1546 0 1602 7 357 47 663 247 850 556
42 69 66 122 100 219 61 176 57 58 60 1720 3 1039 0 1546 -7 1602 -69 525
-469 928 -995 1003 -87 12 -3034 11 -3118 -1z m2745 -2151 l-242 -243 -380
380 -380 380 242 242 243 243 380 -380 380 -380 -243 -242z m-719 34 l377
-377 -693 -691 -692 -692 -434 -36 c-239 -20 -436 -34 -438 -32 -2 2 22 188
53 412 l56 409 692 693 c380 380 693 692 696 692 3 0 175 -170 383 -378z"/>
<path d="M3157 3542 l-67 -67 203 -203 202 -202 68 68 67 67 -203 203 -202
202 -68 -68z"/>
<path d="M2068 2433 l-567 -568 -29 -205 c-16 -113 -28 -207 -26 -209 2 -2
103 5 226 14 l223 18 568 566 567 566 -192 192 c-106 106 -195 193 -198 193
-3 0 -260 -255 -572 -567z"/>
</g>
</svg>
