<svg xmlns="http://www.w3.org/2000/svg"
 width="512.000000pt" height="512.000000pt" viewBox="0 0 512.000000 512.000000"
 >

<g transform="translate(0.000000,512.000000) scale(0.100000,-0.100000)"
fill="#000000" stroke="none">
<path d="M255 4626 c-67 -29 -105 -106 -91 -181 9 -47 59 -102 104 -115 26 -8
737 -10 2314 -8 l2277 3 27 21 c53 39 69 71 69 134 0 63 -16 95 -69 134 l-27
21 -2287 2 c-1886 2 -2292 0 -2317 -11z"/>
<path d="M2900 3993 c-187 -20 -408 -101 -565 -206 -83 -56 -108 -77 -203
-170 -280 -275 -415 -684 -358 -1077 79 -538 478 -960 1016 -1076 119 -26 373
-26 490 0 174 38 337 107 475 201 l68 47 446 -445 c353 -352 454 -447 484
-457 111 -35 219 61 202 179 -6 45 -17 57 -457 497 l-450 451 47 68 c93 137
164 303 202 477 25 115 24 370 -1 488 -99 460 -418 818 -859 965 -160 53 -371
76 -537 58z m371 -342 c175 -45 317 -127 445 -255 130 -129 209 -269 256 -449
32 -121 32 -339 0 -457 -50 -185 -123 -310 -257 -445 -136 -136 -258 -206
-445 -256 -110 -30 -337 -33 -444 -6 -182 46 -323 125 -456 257 -139 137 -220
280 -267 466 -27 107 -24 334 6 444 44 167 117 300 230 421 145 157 335 260
551 298 84 15 292 5 381 -18z"/>
<path d="M255 3666 c-67 -29 -105 -106 -91 -181 9 -47 59 -102 104 -115 25 -8
209 -10 554 -8 504 3 517 4 544 24 53 39 69 71 69 134 0 63 -16 95 -69 134
-27 21 -40 21 -554 23 -423 2 -533 0 -557 -11z"/>
<path d="M255 2706 c-67 -29 -105 -106 -91 -181 9 -47 59 -102 104 -115 25 -8
209 -10 554 -8 504 3 517 4 544 24 53 39 69 71 69 134 0 63 -16 95 -69 134
-27 21 -40 21 -554 23 -423 2 -533 0 -557 -11z"/>
<path d="M255 1746 c-67 -29 -105 -106 -91 -181 9 -47 59 -102 104 -115 25 -8
209 -10 554 -8 504 3 517 4 544 24 53 39 69 71 69 134 0 63 -16 95 -69 134
-27 21 -40 21 -554 23 -423 2 -533 0 -557 -11z"/>
<path d="M255 786 c-67 -29 -105 -106 -91 -181 9 -47 59 -102 104 -115 26 -8
593 -10 1834 -8 l1797 3 27 21 c53 39 69 71 69 134 0 63 -16 95 -69 134 l-27
21 -1807 2 c-1487 2 -1812 0 -1837 -11z"/>
</g>
</svg>
