<svg width="76" height="76" viewBox="0 0 76 76" fill="none" xmlns="http://www.w3.org/2000/svg">
<g clip-path="url(#clip0_123_155)">
<path d="M28.625 44.9312C30.7824 44.9312 32.5313 43.1824 32.5313 41.025C32.5313 38.8676 30.7824 37.1187 28.625 37.1187C26.4676 37.1187 24.7188 38.8676 24.7188 41.025C24.7188 43.1824 26.4676 44.9312 28.625 44.9312Z" fill="black"/>
<path d="M65.4063 27.2125L62.5313 33.4937C62.8125 34.9312 63 36.4 63 37.9C63 51.6812 51.7813 62.9 38 62.9C24.2188 62.9 13 51.6812 13 37.9C13 37.7437 13.0313 37.5875 13 37.4625C21.125 34.4 27.6563 28.1187 30.9375 20.1187C36.6875 27.15 45.4063 31.65 55.1875 31.65C56.5938 31.65 57.9688 31.525 59.3438 31.3375L57.4688 27.2125L54.7188 21.1812L48.6875 18.4312L39.9688 14.4625L48.6875 10.4937L50.9062 9.49374C46.9688 7.68124 42.5938 6.64999 38 6.64999C20.75 6.64999 6.75 20.65 6.75 37.9C6.75 55.15 20.75 69.15 38 69.15C55.25 69.15 69.25 55.15 69.25 37.9C69.25 33.3062 68.2188 28.9312 66.4375 24.9937L65.4063 27.2125Z" fill="black"/>
<path d="M47.375 44.9312C49.5324 44.9312 51.2813 43.1824 51.2813 41.025C51.2813 38.8676 49.5324 37.1187 47.375 37.1187C45.2176 37.1187 43.4688 38.8676 43.4688 41.025C43.4688 43.1824 45.2176 44.9312 47.375 44.9312Z" fill="black"/>
<path d="M64.875 17.9L61.4375 25.4L58 17.9L50.5 14.4625L58 11.025L61.4375 3.52499L64.875 11.025L72.375 14.4625L64.875 17.9Z" fill="black"/>
</g>
<defs>
<clipPath id="clip0_123_155">
<rect width="75" height="75" fill="white" transform="translate(0.5 0.399994)"/>
</clipPath>
</defs>
</svg>
