<svg width="40" height="40" viewBox="0 0 40 40" fill="none" xmlns="http://www.w3.org/2000/svg">
<g id="camera 1">
<g id="Icons">
<path id="Vector" d="M20 12.8C18.4178 12.8 16.871 13.2692 15.5554 14.1482C14.2398 15.0273 13.2145 16.2767 12.609 17.7385C12.0035 19.2003 11.845 20.8089 12.1537 22.3607C12.4624 23.9126 13.2243 25.338 14.3431 26.4568C15.462 27.5757 16.8874 28.3376 18.4393 28.6463C19.9911 28.955 21.5997 28.7965 23.0615 28.191C24.5233 27.5855 25.7727 26.5601 26.6518 25.2446C27.5308 23.929 28 22.3822 28 20.8C28 18.6783 27.1571 16.6434 25.6569 15.1431C24.1566 13.6428 22.1217 12.8 20 12.8ZM20 27.2C18.7342 27.2 17.4968 26.8246 16.4444 26.1214C15.3919 25.4182 14.5716 24.4186 14.0872 23.2492C13.6028 22.0797 13.476 20.7929 13.723 19.5514C13.9699 18.3099 14.5795 17.1696 15.4745 16.2745C16.3696 15.3794 17.5099 14.7699 18.7514 14.523C19.9929 14.276 21.2797 14.4028 22.4492 14.8872C23.6186 15.3716 24.6182 16.1919 25.3214 17.2443C26.0246 18.2968 26.4 19.5342 26.4 20.8C26.4 22.4974 25.7257 24.1252 24.5255 25.3255C23.3253 26.5257 21.6974 27.2 20 27.2Z" fill="white"/>
<path id="Vector_2" d="M30.4 9.59999H26.896L26.232 8.27199C25.9277 7.72775 25.4895 7.27017 24.9589 6.94258C24.4283 6.615 23.8229 6.42824 23.2 6.39999H16.8C16.1771 6.42824 15.5717 6.615 15.0411 6.94258C14.5105 7.27017 14.0723 7.72775 13.768 8.27199L13.104 9.59999H9.6C8.11479 9.59999 6.69041 10.19 5.6402 11.2402C4.59 12.2904 4 13.7148 4 15.2V28C4 29.4852 4.59 30.9096 5.6402 31.9598C6.69041 33.01 8.11479 33.6 9.6 33.6H30.4C31.8852 33.6 33.3096 33.01 34.3598 31.9598C35.41 30.9096 36 29.4852 36 28V15.2C36 13.7148 35.41 12.2904 34.3598 11.2402C33.3096 10.19 31.8852 9.59999 30.4 9.59999ZM34.4 28C34.4 29.0609 33.9786 30.0783 33.2284 30.8284C32.4783 31.5786 31.4609 32 30.4 32H9.6C8.53913 32 7.52172 31.5786 6.77157 30.8284C6.02143 30.0783 5.6 29.0609 5.6 28V15.2C5.6 14.1391 6.02143 13.1217 6.77157 12.3716C7.52172 11.6214 8.53913 11.2 9.6 11.2H13.6C13.7477 11.1995 13.8925 11.1582 14.0181 11.0805C14.1438 11.0029 14.2455 10.8919 14.312 10.76L15.2 8.99199C15.3679 8.71074 15.6009 8.47387 15.8793 8.30126C16.1577 8.12865 16.4734 8.02534 16.8 7.99999H23.2C23.5266 8.02534 23.8423 8.12865 24.1207 8.30126C24.3991 8.47387 24.6321 8.71074 24.8 8.99199L25.688 10.76C25.7545 10.8919 25.8562 11.0029 25.9819 11.0805C26.1075 11.1582 26.2523 11.1995 26.4 11.2H30.4C31.4609 11.2 32.4783 11.6214 33.2284 12.3716C33.9786 13.1217 34.4 14.1391 34.4 15.2V28Z" fill="white"/>
</g>
</g>
</svg>
