<svg width="204" height="204" viewBox="0 0 204 204" fill="none" xmlns="http://www.w3.org/2000/svg">
<path d="M113.894 56.2742L77.615 23.8926L198.273 23.8895C201.436 23.8894 203.999 26.4532 203.999 29.6158V50.5447C203.999 53.7072 201.436 56.271 198.273 56.2711L113.894 56.2742Z" fill="#DCEBFF"/>
<path d="M145.389 122.219V89.8375H186.417C189.58 89.8375 192.144 92.4013 192.144 95.5638V116.493C192.144 119.655 189.58 122.219 186.417 122.219H145.389Z" fill="#DCEBFF"/>
<path d="M77.615 189.346L113.894 156.964H198.273C201.436 156.964 204 159.528 204 162.691V183.619C204 186.782 201.436 189.346 198.273 189.346H77.615Z" fill="#DCEBFF"/>
<path d="M174.546 105.963C174.546 154.008 135.473 192.957 87.2732 192.957C39.0735 192.957 0 154.008 0 105.963C0 57.9171 39.0735 18.9684 87.2732 18.9684C135.473 18.9684 174.546 57.9171 174.546 105.963ZM33.3384 105.963C33.3384 135.655 57.4858 159.725 87.2732 159.725C117.061 159.725 141.208 135.655 141.208 105.963C141.208 76.2705 117.061 52.2002 87.2732 52.2002C57.4858 52.2002 33.3384 76.2705 33.3384 105.963Z" fill="#4869C6"/>
</svg>
