<svg width="24" height="24" viewBox="0 0 24 24" fill="none" xmlns="http://www.w3.org/2000/svg">
<g id="i-Icon/GearSix-settings (&#240;&#159;&#148;&#132; swap)">
<path id="Vector" fill-rule="evenodd" clip-rule="evenodd" d="M8.78825 1.99568C8.99424 1.92918 9.21892 1.95493 9.40453 2.06629L11.5969 3.38169C11.8656 3.36968 12.1347 3.36969 12.4034 3.38172L14.5867 2.07522C14.7707 1.96507 14.9932 1.93901 15.1977 2.00363C16.6304 2.45627 17.9477 3.21489 19.0582 4.22695C19.2174 4.37203 19.3065 4.57855 19.3029 4.79391L19.26 7.34226C19.4081 7.5696 19.5439 7.80466 19.667 8.04644L21.8894 9.28204C22.0765 9.38608 22.2102 9.56514 22.2569 9.77411C22.5839 11.2386 22.5873 12.7567 22.267 14.2226C22.2209 14.4334 22.0864 14.6141 21.8977 14.7186L19.6667 15.9543C19.5437 16.1958 19.4079 16.4307 19.26 16.6578L19.3029 19.2062C19.3065 19.4215 19.2174 19.6281 19.0582 19.7731C17.95 20.783 16.6384 21.5438 15.2116 22.0044C15.0056 22.0709 14.7809 22.0452 14.5953 21.9338L12.403 20.6184C12.1342 20.6304 11.8651 20.6304 11.5964 20.6184L9.41316 21.9249C9.22908 22.035 9.00664 22.0611 8.80209 21.9964C7.36937 21.5438 6.05214 20.7852 4.9416 19.7731C4.78239 19.628 4.69325 19.4215 4.69689 19.2061L4.73984 16.6636C4.59266 16.4338 4.45696 16.197 4.33323 15.9539L2.11046 14.718C1.92333 14.614 1.78958 14.4349 1.74293 14.226C1.41596 12.7615 1.41251 11.2434 1.73282 9.77744C1.77887 9.56668 1.91344 9.38596 2.10216 9.28145L4.33314 8.04582C4.45613 7.80426 4.59187 7.56941 4.73979 7.34226L4.69689 4.79391C4.69326 4.57854 4.78241 4.37201 4.94162 4.22693C6.04982 3.21708 7.36145 2.45627 8.78825 1.99568ZM6.20252 5.11567L6.24355 7.55304C6.24621 7.71094 6.19895 7.86566 6.10852 7.99513C5.90735 8.28314 5.73123 8.58786 5.58209 8.90593C5.51504 9.04893 5.40456 9.16711 5.2664 9.24363L3.13316 10.4251C2.94657 11.4669 2.94916 12.5338 3.14081 13.5746L5.26748 14.757C5.40459 14.8333 5.51435 14.9506 5.5813 15.0925C5.73371 15.4154 5.91148 15.7258 6.11294 16.0207C6.20053 16.1489 6.24617 16.3012 6.24355 16.4565L6.20254 18.8843C7.01319 19.5691 7.94022 20.1029 8.93946 20.4603L11.0242 19.2127C11.1562 19.1337 11.3093 19.0972 11.4628 19.1082C11.8204 19.1338 12.1794 19.1338 12.537 19.1082C12.6908 19.0972 12.8442 19.1339 12.9764 19.2132L15.0678 20.468C16.0638 20.105 16.9878 19.5689 17.7973 18.8844L17.7563 16.447C17.7536 16.2891 17.8009 16.1344 17.8913 16.0049C18.0925 15.7169 18.2686 15.4122 18.4177 15.0941C18.4848 14.9511 18.5952 14.833 18.7334 14.7564L20.8666 13.575C21.0532 12.5332 21.0507 11.4663 20.859 10.4254L18.7323 9.24304C18.5947 9.1665 18.4846 9.04855 18.4177 8.90593C18.2686 8.58786 18.0925 8.28314 17.8913 7.99513C17.8009 7.86566 17.7536 7.71094 17.7563 7.55304L17.7973 5.11577C16.9866 4.43094 16.0596 3.89715 15.0603 3.53982L12.9757 4.78736C12.8436 4.86636 12.6905 4.90286 12.537 4.89188C12.1794 4.8663 11.8204 4.8663 11.4628 4.89188C11.309 4.90288 11.1556 4.86622 11.0234 4.78691L8.93199 3.53206C7.93602 3.89505 7.01197 4.43117 6.20252 5.11567ZM11.9999 8.25004C9.92884 8.25004 8.2499 9.92897 8.2499 12C8.2499 14.0711 9.92884 15.75 11.9999 15.75C14.071 15.75 15.7499 14.0711 15.7499 12C15.7499 9.92897 14.071 8.25004 11.9999 8.25004ZM6.7499 12C6.7499 9.10054 9.10041 6.75004 11.9999 6.75004C14.8994 6.75004 17.2499 9.10054 17.2499 12C17.2499 14.8995 14.8994 17.25 11.9999 17.25C9.10041 17.25 6.7499 14.8995 6.7499 12Z" fill="#616C76"/>
</g>
</svg>
