<svg fill="#3369f3" xmlns="http://www.w3.org/2000/svg" viewBox="0 0 512 512">
	<g>
		<g>
			<path d="M300.434,257.599c-25.945,27.304-60.622,43.875-98.602,43.875c-37.979,0-72.656-16.571-98.602-43.875
				c-45.617,28.738-77.826,76.818-85.092,132.736c-1.659,12.77,8.291,24.107,21.201,24.107h225.846
				c0-53.371,32.011-99.402,77.838-119.914C330.812,280.165,316.452,267.69,300.434,257.599z"/>
		</g>
	</g>
	<g>
		<g>
			<ellipse cx="201.828" cy="133.868" rx="112.229" ry="133.868"/>
		</g>
	</g>
	<g>
		<g>
			<path d="M396.486,316.885c-53.794,0-97.558,43.764-97.558,97.558S342.693,512,396.486,512c53.792,0,97.557-43.764,97.557-97.558
				S450.279,316.885,396.486,316.885z M435.199,431.315h-21.841v21.841c0,9.318-7.554,16.872-16.872,16.872
				c-9.318,0-16.872-7.554-16.872-16.872v-21.841h-21.842c-9.318,0-16.872-7.554-16.872-16.872c0-9.319,7.554-16.872,16.872-16.872
				h21.842v-21.841c0-9.318,7.554-16.872,16.872-16.872c9.318,0,16.872,7.554,16.872,16.872v21.841h21.841
				c9.318,0,16.872,7.554,16.872,16.872C452.072,423.761,444.518,431.315,435.199,431.315z"/>
		</g>
	</g>
</svg>
