<svg xmlns="http://www.w3.org/2000/svg" viewBox="0 0 512 512">
	<path fill="#efefef" d="M487.67,416C503.1,393.65,512,367.41,512,339.34c0-51.81-30.29-97.38-76.1-123.67C434.76,110.31,337.63,25.22,218,25.22,97.59,25.22,0,111.32,0,217.54c0,36.62,11.61,70.85,31.74,100L4,368.95c-11.63,19.38,3.92,40.91,23,40.91a26.89,26.89,0,0,0,13.93-4l54.4-29.34A235.57,235.57,0,0,0,197.6,409c28.19,46.29,83.57,77.76,147.29,77.76,34.88,0,67.24-9.44,94-25.56l41.71,22.49a20.63,20.63,0,0,0,10.68,3.07c14.61,0,26.53-16.5,17.61-31.36ZM108.53,354.54,96,347l-12.87,6.94-54.4,29.34-.52.28-.5.3a4.79,4.79,0,0,1-.71.35,2.53,2.53,0,0,1-1.36-1.3,2.69,2.69,0,0,1,.35-.77l.3-.5.28-.52,27.74-51.43,7.46-13.83-8.93-12.92C35,277.2,25.64,247.66,25.64,217.54c0-91.91,86.27-166.68,192.32-166.68,100.53,0,183.28,67.2,191.62,152.49a186,186,0,0,0-64.68-11.46c-92.29,0-167.11,66-167.11,147.45a131.45,131.45,0,0,0,7,42.38A207.85,207.85,0,0,1,108.53,354.54Zm358,46.87-8.93,12.92,7.46,13.83,13.72,25.43L451.1,438.65l-12.87-6.94-12.53,7.54c-23.79,14.32-51.74,21.89-80.81,21.89-78,0-141.46-54.64-141.46-121.8s63.46-121.8,141.46-121.8,141.46,54.64,141.46,121.8A108.94,108.94,0,0,1,466.57,401.41ZM397.46,294.46a12.82,12.82,0,0,1-12.82,12.82H307.71a12.82,12.82,0,1,1,0-25.64h76.93A12.82,12.82,0,0,1,397.46,294.46Zm0,38.46a12.82,12.82,0,0,1-12.82,12.82H307.71a12.82,12.82,0,1,1,0-25.64h76.93A12.82,12.82,0,0,1,397.46,332.93Zm0,38.46a12.82,12.82,0,0,1-12.82,12.82H307.71a12.82,12.82,0,1,1,0-25.64h76.93A12.82,12.82,0,0,1,397.46,371.39Z"/>
</svg>
