<svg xmlns="http://www.w3.org/2000/svg" version="1.0" viewBox="0 0 358 312"><path d="M141.1 25.1C126.5 35.6 133.9 57.9 152 58c15.3 0 23.2-18.2 13.2-30.2-3.4-4-7.9-5.8-14.5-5.8-4.4 0-6.2.5-9.6 3.1zm16.6 6.8c5.7 4.8 5 13.6-1.4 16.9-6 3.2-13.6-.9-14.8-7.9-.6-3.1-.2-4.1 2.5-7.3 2.7-3.1 3.8-3.6 7.4-3.6 2.5.1 5 .8 6.3 1.9zm40.8-8.8C191.8 27 188 32.9 188 39.4c0 8 3.1 13.1 10.2 16.7 11.9 6.1 25.8-2.7 25.8-16.3-.1-5.7-3-12-7.1-14.9-3.9-2.7-14.9-3.8-18.4-1.8zm14.7 9.9c2.8 2.8 3 3.6 2.5 7.8-.9 8-7.5 11.4-14.8 7.7-5.6-3-6.6-10.9-2-15.6 4.2-4.1 10.1-4.1 14.3.1zm-37.7 22c-5.1.7-8.6 3.1-11.9 7.9-2.1 3-2.6 4.9-2.6 9.8 0 6.9 2.3 11.2 7.9 15 15.6 10.5 34.5-6.7 25.9-23.7-3.8-7.3-10.2-10.3-19.3-9zm10.9 11.2c2.4 2.6 2.7 3.7 2.3 7.1-1.2 9-10.9 12.5-16.8 5.9-5-5.5-3.3-12.8 3.5-15.7 4.1-1.8 7.5-1 11 2.7zm-53.9-4.1-3.6 3.2.3 36.8c.4 44.3-.7 41.2 13.8 41.7l9 .4V136h-15V68l2.5-1.2c4.8-2.2 4-7.8-1.1-7.8-1.3 0-3.9 1.4-5.9 3.1zm83.8-2.4c-2.2.8-1.4 4.6 1.4 6.9l2.7 2.1.4 24.4c.2 13.4 0 28.4-.5 33.4l-.8 9-7.2.3-7.3.3v7.9h8.4c15.2 0 15.4-.7 15.4-42.5 0-32.1-.5-37-4.2-40.1-2.6-2.3-5.5-2.9-8.3-1.7zM159.5 99l-3 3.1v17.8c0 25.3.5 25.8 25.4 24.8 14.5-.5 14.5-.5 16.8-3.4 2.2-2.7 2.3-3.5 2.3-21.4v-18.5l-2.8-2.7c-3.5-3.3-8.6-3.7-10.2-.7-.8 1.5-.6 2.4 1 4 1.1 1.1 2.5 2 3 2 .6 0 1 6 1 15.9v15.8l-6.1.7c-3.4.3-9.7.6-14 .6H165v-32.7l2.6-1.1c2-1 2.5-1.8 2.2-4-.3-2.3-.8-2.7-3.8-3-2.9-.2-4.1.3-6.5 2.8zm70.5 90c-1.3.8-1.5 5.9-1.8 34l-.3 33.1 5.3-.3 5.3-.3.3-18.1c.2-16.8.4-18.2 2.1-18.7 4.2-1.1 4.6.3 4.9 19.3l.3 18h9.9v-20.5c0-21.9-.6-25.1-4.7-26.1-2.5-.7-7.4-.1-10.5 1.1-1.7.7-1.8-.2-1.8-10.9V188h-3.7c-2.1 0-4.5.5-5.3 1zm-172.9 2c-8.7 2.1-12.8 8.9-14.4 24.5-1.3 13 .1 29.8 3 34.7 2.9 5.2 7.5 7 16.4 6.6 11.3-.4 10.9.3 10.9-21.4V217H59v4c0 3.3.3 4 2 4 1.9 0 2 .7 2 11 0 10.8 0 11-2.3 11-1.3 0-3.1-.6-4.1-1.3-3.3-2.4-4.4-22.8-2-36.4.4-1.8 1.8-4.4 3.2-5.9 2.4-2.3 3.3-2.6 8.4-2.2 5.5.4 5.6.4 6.2-2.5.8-4-.8-6.4-5.2-7.7-4.2-1.1-5.3-1.1-10.1 0zm153.6.4c-2 .7-4.4 1.9-5.2 2.6-2.6 2.2-6.4 11.3-7.5 18-2 12.9-.7 31.7 2.6 38.2 2.1 4 7 6.8 12.1 6.8 8.3 0 12-3.3 10.9-9.5-.6-3.2-.7-3.2-4.9-2.4-5 .9-8.3-.7-9.4-4.9-.5-1.5-.8-8.8-.8-16.2.1-11.2.4-14.2 2-17.4 2.1-4.4 6.6-6.9 10.1-5.6 1.6.7 2.4.5 2.8-.6 1.1-2.8.6-7.1-.8-8.3-2.3-1.9-7.8-2.2-11.9-.7zm-87.6 1c-.7.8-1.1 3-.9 4.8.3 3.3.3 3.3 6.1 3.6l5.7.3V256h10v-54.9l5.8-.3 5.7-.3.3-4.8.3-4.7h-15.9c-12.6 0-16.2.3-17.1 1.4zm174.7 1.7c-1.5.8-1.8 2.4-1.8 8.4 0 7.3-.1 7.5-2.5 7.5-2 0-2.5.5-2.5 2.4 0 1.3-.3 3.1-.6 4-.5 1.2.2 1.8 2.4 2.2l3 .6.4 16.5.3 16.5 2.8 2.4c2 1.7 4 2.4 7.1 2.4 5 0 7.6-2.2 7.6-6.3 0-2.4-.4-2.7-3.4-2.7s-3.4-.4-4-3.1c-.3-1.7-.6-8.2-.6-14.5v-11.3l3.8-.3c3.6-.3 3.7-.4 4-4.5l.3-4.2-3.8-.3-3.8-.3-.3-8.3-.3-8.2h-3.2c-1.8 0-4 .5-4.9 1.1zM85.4 210.5c-5.5 2.8-7.8 8.5-8.2 20.4-.5 12.6.9 19.9 4.4 23.2 2.2 2.1 3.6 2.4 9.6 2.4 6.6 0 7.1-.2 9.8-3.2 3.9-4.4 5.1-9.6 5.1-21.9 0-10.9-1.7-17.2-5.5-20.3-2.6-2.1-11.5-2.5-15.2-.6zm9.2 9.9c1.1 4.6 0 25.2-1.5 27-1.3 1.6-1.6 1.6-3 .1-2-1.9-2.9-22.4-1.2-26.8 1.4-3.5 4.8-3.7 5.7-.3z"/><path d="M159 210.8c-2.3 1.2-4.3 3.5-5.9 6.7-2.2 4.3-2.5 6.2-2.5 15.9 0 17.4 2.8 22.6 12.7 23.4 11.4.9 15.8-4.9 16.5-21.9.8-18.4-3.1-25.9-13.3-25.9-2.2 0-5.6.8-7.5 1.8zm9.4 10.3c.8 3.9.6 19.4-.3 23.4-.8 3.9-4.5 4.8-5.5 1.3-1-3.8-.7-23.8.4-25.9 1.7-3.1 4.7-2.4 5.4 1.2zm98-11c-4.5 1.3-5.8 3.2-5 7.5.6 2.8 1.1 3.4 2.4 2.9.9-.4 4.1-.9 7-1.2 6.1-.7 7.2.1 7.2 5.4 0 3.2 0 3.2-4.8 3.1-8.5-.2-12.2 4.2-12.2 14.6 0 6 2.5 11.6 6 13.3 3.4 1.7 13.3 1.6 17.6-.2l3.5-1.4-.3-20.2-.3-20.1-2.8-2.4c-2.4-2-3.8-2.4-9-2.3-3.4 0-7.6.5-9.3 1zm11.4 31c.3 6.3-1.5 9.2-4.3 6.9-1.8-1.5-2-10.1-.3-11.8 2.7-2.7 4.3-.9 4.6 4.9z"/></svg>