<svg fill="#3369f3" xmlns="http://www.w3.org/2000/svg" viewBox="0 0 512 512">
	<g>
		<g>
			<path d="M300.435,257.599c-25.944,27.303-60.62,43.876-98.602,43.876c-37.976,0-72.654-16.568-98.602-43.876
				c-45.617,28.739-77.825,76.818-85.092,132.735c-1.659,12.77,8.291,24.108,21.201,24.108h225.844
				c0.001-53.371,32.012-99.402,77.841-119.914C330.813,280.165,316.452,267.69,300.435,257.599z"/>
		</g>
	</g>
	<g>
		<g>
			<ellipse cx="201.835" cy="133.862" rx="112.233" ry="133.862"/>
		</g>
	</g>
	<g>
		<g>
			<path d="M396.486,316.885c-53.794,0-97.557,43.764-97.557,97.557S342.692,512,396.486,512s97.557-43.764,97.557-97.557
				S450.279,316.885,396.486,316.885z M435.199,431.315h-77.427c-9.318,0-16.872-7.554-16.872-16.872
				c0-9.318,7.554-16.872,16.872-16.872h77.427c9.318,0,16.872,7.554,16.872,16.872C452.071,423.761,444.518,431.315,435.199,431.315
				z"/>
		</g>
	</g>
</svg>
