<svg width="25" height="25" viewBox="0 0 25 25" fill="none" xmlns="http://www.w3.org/2000/svg">
<g clip-path="url(#attach)">
<path d="M15.5639 7.98453L13.9689 6.40015L5.99384 14.3283C5.67975 14.6407 5.43063 15.0115 5.26068 15.4197C5.09074 15.8278 5.00331 16.2652 5.00338 16.707C5.00346 17.1487 5.09103 17.5861 5.26111 17.9942C5.43119 18.4022 5.68043 18.773 5.99462 19.0853C6.30881 19.3976 6.68179 19.6453 7.09225 19.8143C7.50272 19.9833 7.94264 20.0702 8.3869 20.0701C8.83116 20.0701 9.27105 19.983 9.68146 19.8139C10.0919 19.6448 10.4648 19.3969 10.7788 19.0845L20.3489 9.57046C21.4062 8.51892 22.0001 7.09281 22 5.60585C21.9999 4.11889 21.4056 2.69289 20.3481 1.64156C19.2905 0.590222 17.8563 -0.000329591 16.3608 -0.000183078C14.8653 -3.65654e-05 13.4312 0.590796 12.3739 1.64234L2.32611 11.6314L2.30411 11.6517C-0.768038 14.7064 -0.768038 19.6564 2.30411 22.7095C5.37626 25.7627 10.3546 25.7627 13.4267 22.7095L13.4471 22.6877L13.4487 22.6892L20.308 15.8705L18.713 14.2861L11.8537 21.1033L11.8333 21.1236C9.64585 23.2986 6.08812 23.2986 3.90069 21.1236C3.37891 20.6036 2.96548 19.9864 2.68411 19.3073C2.40273 18.6281 2.25895 17.9004 2.26099 17.1659C2.26303 16.4314 2.41087 15.7045 2.69602 15.0269C2.98117 14.3494 3.39803 13.7344 3.92269 13.2173L3.92112 13.2158L13.9704 3.22671C15.2889 1.91421 17.4354 1.91421 18.7554 3.22671C20.0754 4.53921 20.0739 6.67203 18.7554 7.98296L9.18542 17.497C8.97125 17.6929 8.68925 17.7989 8.39831 17.793C8.10738 17.787 7.83002 17.6695 7.62415 17.465C7.41829 17.2605 7.29984 16.9848 7.29355 16.6956C7.28727 16.4063 7.39362 16.1258 7.59041 15.9127L15.5654 7.98296L15.5639 7.98453Z" fill="#3369F3" fill-opacity="1"/>
</g>
<defs>
<clipPath id="attach">
<rect width="25" height="25" fill="white"/>
</clipPath>
</defs>
</svg>