<svg width="22" height="19" viewBox="0 0 22 19" fill="none" xmlns="http://www.w3.org/2000/svg">
<path d="M19.6429 0C20.9381 0 22 1.06999 22 2.375V16.625C22 17.93 20.9381 19 19.6429 19H2.35714C1.06194 19 0 17.93 0 16.625V2.375C0 1.06999 1.06194 0 2.35714 0H19.6429ZM19.6429 1.58333H2.35714C1.91518 1.58333 1.57143 1.92969 1.57143 2.375V13.1305L7.07143 7.58887L10.2143 10.7555L14.9286 6.00553L20.4286 11.5472V2.375C20.4286 1.92969 20.0848 1.58333 19.6429 1.58333ZM4.71429 3.16667C5.5798 3.16667 6.28572 3.87793 6.28572 4.75C6.28572 5.62207 5.5798 6.33333 4.71429 6.33333C3.84877 6.33333 3.14286 5.62207 3.14286 4.75C3.14286 3.87793 3.84877 3.16667 4.71429 3.16667ZM14.9286 8.24447L9.19531 14.0212L8.0904 12.8955L9.10324 11.875L7.07143 9.8278L1.57143 15.3695V16.625C1.57143 17.0703 1.91518 17.4167 2.35714 17.4167H19.6429C20.0848 17.4167 20.4286 17.0703 20.4286 16.625V13.7861L14.9286 8.24447Z" fill="#C3C9CE"/>
</svg>
