<svg width="15" height="16" viewBox="0 0 15 16" fill="none" xmlns="http://www.w3.org/2000/svg">
<path d="M7.23079 15.6667C6.59155 15.6667 5.97849 15.4128 5.52647 14.9607C5.07446 14.5087 4.82053 13.8957 4.82053 13.2564C4.82053 13.0966 4.88401 12.9434 4.99701 12.8304C5.11002 12.7174 5.26328 12.6539 5.42309 12.6539H9.03848C9.19829 12.6539 9.35156 12.7174 9.46456 12.8304C9.57756 12.9434 9.64105 13.0966 9.64105 13.2564C9.64105 13.8957 9.38711 14.5087 8.9351 14.9607C8.48308 15.4128 7.87003 15.6667 7.23079 15.6667ZM6.18835 13.859C6.29429 14.0416 6.44634 14.1932 6.62929 14.2986C6.81224 14.404 7.01966 14.4594 7.23079 14.4594C7.44191 14.4594 7.64933 14.404 7.83228 14.2986C8.01523 14.1932 8.16729 14.0416 8.27322 13.859H6.18835Z" fill="white"/>
<path d="M8.43589 2.41026H6.02563C5.86582 2.41026 5.71256 2.34678 5.59955 2.23377C5.48655 2.12077 5.42307 1.9675 5.42307 1.80769C5.42307 1.32826 5.61352 0.86847 5.95253 0.529462C6.29154 0.190453 6.75133 0 7.23076 0C7.71019 0 8.16998 0.190453 8.50899 0.529462C8.848 0.86847 9.03845 1.32826 9.03845 1.80769C9.03845 1.9675 8.97497 2.12077 8.86197 2.23377C8.74897 2.34678 8.5957 2.41026 8.43589 2.41026Z" fill="white"/>
<path d="M13.859 13.859H0.602566C0.442756 13.859 0.289491 13.7955 0.176489 13.6825C0.0634857 13.5695 1.27206e-06 13.4162 1.27206e-06 13.2564C-0.000527177 12.5759 0.163602 11.9054 0.47838 11.3021C0.793158 10.6988 1.24924 10.1805 1.8077 9.79169V6.62822C1.80766 5.19617 2.37406 3.82224 3.38328 2.80625C4.3925 1.79026 5.76261 1.21469 7.19463 1.20514H7.26091C8.6992 1.20514 10.0786 1.7765 11.0956 2.79352C12.1126 3.81055 12.684 5.18993 12.684 6.62822V9.79169C13.2369 10.1839 13.6871 10.7035 13.9965 11.3067C14.306 11.9098 14.4655 12.5786 14.4616 13.2564C14.4616 13.4162 14.3981 13.5695 14.2851 13.6825C14.1721 13.7955 14.0188 13.859 13.859 13.859ZM1.26539 12.6539H13.1962C13.1108 12.2361 12.9378 11.8413 12.6885 11.4954C12.4392 11.1495 12.1193 10.8604 11.75 10.6473C11.6581 10.5942 11.5818 10.5178 11.5289 10.4257C11.476 10.3337 11.4483 10.2293 11.4487 10.1231V6.62822C11.4487 5.50955 11.0043 4.4367 10.2133 3.64568C9.42231 2.85466 8.34945 2.41027 7.23078 2.41027C6.11211 2.41027 5.03926 2.85466 4.24824 3.64568C3.45722 4.4367 3.01283 5.50955 3.01283 6.62822V10.1231C3.01325 10.2293 2.98561 10.3337 2.9327 10.4257C2.87979 10.5178 2.8035 10.5942 2.71154 10.6473C2.34224 10.8604 2.02236 11.1495 1.77307 11.4954C1.52377 11.8413 1.35073 12.2361 1.26539 12.6539Z" fill="white"/>
</svg>
