<svg width="17" height="17" viewBox="0 0 17 17" fill="none" xmlns="http://www.w3.org/2000/svg">
<g clip-path="url(#clip0_51_13)">
<path d="M8.5 5.17969C7.84331 5.17969 7.20136 5.37442 6.65533 5.73926C6.10931 6.1041 5.68374 6.62266 5.43243 7.22937C5.18113 7.83608 5.11537 8.50368 5.24349 9.14776C5.3716 9.79184 5.68783 10.3835 6.15219 10.8478C6.61654 11.3122 7.20816 11.6284 7.85224 11.7565C8.49632 11.8846 9.16392 11.8189 9.77063 11.5676C10.3773 11.3163 10.8959 10.8907 11.2607 10.3447C11.6256 9.79864 11.8203 9.1567 11.8203 8.5C11.8203 7.6194 11.4705 6.77486 10.8478 6.15218C10.2251 5.52951 9.3806 5.17969 8.5 5.17969ZM8.5 11.0234C8.00091 11.0234 7.51303 10.8754 7.09805 10.5982C6.68308 10.3209 6.35964 9.92678 6.16865 9.46568C5.97766 9.00458 5.92768 8.4972 6.02505 8.0077C6.12242 7.5182 6.36275 7.06857 6.71566 6.71566C7.06857 6.36275 7.5182 6.12242 8.0077 6.02505C8.4972 5.92768 9.00458 5.97765 9.46568 6.16865C9.92678 6.35964 10.3209 6.68308 10.5982 7.09805C10.8754 7.51303 11.0234 8.00091 11.0234 8.5C11.0234 9.16926 10.7576 9.8111 10.2843 10.2843C9.8111 10.7576 9.16926 11.0234 8.5 11.0234Z" fill="white"/>
<path d="M16.0703 6.375H14.8843C14.8567 6.37479 14.8298 6.36599 14.8074 6.3498C14.7851 6.33361 14.7683 6.31085 14.7595 6.28469C14.6823 6.06546 14.5936 5.85045 14.4938 5.64055C14.4814 5.61578 14.477 5.58773 14.4813 5.56034C14.4856 5.53295 14.4983 5.50759 14.5177 5.48781L15.3558 4.64844C15.4421 4.56211 15.5106 4.45961 15.5573 4.34681C15.6041 4.23401 15.6281 4.11311 15.6281 3.99102C15.6281 3.86892 15.6041 3.74802 15.5573 3.63522C15.5106 3.52242 15.4421 3.41992 15.3558 3.33359L13.6651 1.64422C13.5787 1.55788 13.4763 1.48939 13.3635 1.44266C13.2507 1.39594 13.1298 1.37189 13.0077 1.37189C12.8856 1.37189 12.7647 1.39594 12.6519 1.44266C12.5391 1.48939 12.4366 1.55788 12.3502 1.64422L11.5122 2.48227C11.4924 2.50169 11.467 2.51444 11.4397 2.51873C11.4123 2.52302 11.3842 2.51863 11.3595 2.50617C11.1496 2.40637 10.9345 2.3177 10.7153 2.24055C10.6891 2.23171 10.6664 2.21494 10.6502 2.19256C10.634 2.17018 10.6252 2.14332 10.625 2.1157V0.929688C10.625 0.683119 10.5271 0.446649 10.3527 0.272299C10.1784 0.0979489 9.94188 0 9.69531 0H7.30469C7.05812 0 6.82165 0.0979489 6.6473 0.272299C6.47295 0.446649 6.375 0.683119 6.375 0.929688V2.1157C6.37479 2.14332 6.36599 2.17018 6.3498 2.19256C6.33361 2.21494 6.31085 2.23171 6.28469 2.24055C6.06546 2.31773 5.85045 2.4064 5.64055 2.50617C5.61578 2.51863 5.58773 2.52302 5.56034 2.51873C5.53295 2.51444 5.50759 2.50169 5.48781 2.48227L4.64844 1.64422C4.56211 1.55788 4.45961 1.48939 4.34681 1.44266C4.23401 1.39594 4.11311 1.37189 3.99102 1.37189C3.86892 1.37189 3.74802 1.39594 3.63522 1.44266C3.52242 1.48939 3.41992 1.55788 3.33359 1.64422L1.64422 3.33492C1.55788 3.42125 1.48939 3.52374 1.44266 3.63655C1.39594 3.74935 1.37189 3.87025 1.37189 3.99234C1.37189 4.11444 1.39594 4.23534 1.44266 4.34814C1.48939 4.46094 1.55788 4.56343 1.64422 4.64977L2.48227 5.48781C2.50169 5.50759 2.51444 5.53295 2.51873 5.56034C2.52302 5.58773 2.51863 5.61578 2.50617 5.64055C2.40637 5.85044 2.3177 6.06545 2.24055 6.28469C2.23171 6.31085 2.21494 6.33361 2.19256 6.3498C2.17018 6.36599 2.14332 6.37479 2.1157 6.375H0.929688C0.683119 6.375 0.446649 6.47295 0.272299 6.6473C0.0979489 6.82165 0 7.05812 0 7.30469L0 9.69531C0 9.94188 0.0979489 10.1784 0.272299 10.3527C0.446649 10.5271 0.683119 10.625 0.929688 10.625H2.1157C2.14332 10.6252 2.17018 10.634 2.19256 10.6502C2.21494 10.6664 2.23171 10.6891 2.24055 10.7153C2.31773 10.9345 2.4064 11.1495 2.50617 11.3595C2.51863 11.3842 2.52302 11.4123 2.51873 11.4397C2.51444 11.467 2.50169 11.4924 2.48227 11.5122L1.64422 12.3516C1.55788 12.4379 1.48939 12.5404 1.44266 12.6532C1.39594 12.766 1.37189 12.8869 1.37189 13.009C1.37189 13.1311 1.39594 13.252 1.44266 13.3648C1.48939 13.4776 1.55788 13.5801 1.64422 13.6664L3.33492 15.3571C3.42125 15.4434 3.52374 15.5119 3.63655 15.5587C3.74935 15.6054 3.87025 15.6294 3.99234 15.6294C4.11444 15.6294 4.23534 15.6054 4.34814 15.5587C4.46094 15.5119 4.56343 15.4434 4.64977 15.3571L5.48781 14.5191C5.50759 14.4996 5.53295 14.4869 5.56034 14.4826C5.58773 14.4783 5.61578 14.4827 5.64055 14.4952C5.85044 14.595 6.06545 14.6836 6.28469 14.7608C6.31085 14.7696 6.33361 14.7864 6.3498 14.8088C6.36599 14.8311 6.37479 14.858 6.375 14.8856V16.0703C6.375 16.3169 6.47295 16.5534 6.6473 16.7277C6.82165 16.9021 7.05812 17 7.30469 17H9.69531C9.94188 17 10.1784 16.9021 10.3527 16.7277C10.5271 16.5534 10.625 16.3169 10.625 16.0703V14.8843C10.6252 14.8567 10.634 14.8298 10.6502 14.8074C10.6664 14.7851 10.6891 14.7683 10.7153 14.7595C10.9345 14.6823 11.1495 14.5936 11.3595 14.4938C11.3842 14.4814 11.4123 14.477 11.4397 14.4813C11.467 14.4856 11.4924 14.4983 11.5122 14.5177L12.3516 15.3558C12.4379 15.4421 12.5404 15.5106 12.6532 15.5573C12.766 15.6041 12.8869 15.6281 13.009 15.6281C13.1311 15.6281 13.252 15.6041 13.3648 15.5573C13.4776 15.5106 13.5801 15.4421 13.6664 15.3558L15.3571 13.6651C15.4434 13.5787 15.5119 13.4763 15.5587 13.3635C15.6054 13.2507 15.6294 13.1298 15.6294 13.0077C15.6294 12.8856 15.6054 12.7647 15.5587 12.6519C15.5119 12.5391 15.4434 12.4366 15.3571 12.3502L14.5191 11.5122C14.4996 11.4924 14.4869 11.467 14.4826 11.4397C14.4783 11.4123 14.4827 11.3842 14.4952 11.3595C14.595 11.1496 14.6836 10.9345 14.7608 10.7153C14.7696 10.6891 14.7864 10.6664 14.8088 10.6502C14.8311 10.634 14.858 10.6252 14.8856 10.625H16.0703C16.3169 10.625 16.5534 10.5271 16.7277 10.3527C16.9021 10.1784 17 9.94188 17 9.69531V7.30469C17 7.05812 16.9021 6.82165 16.7277 6.6473C16.5534 6.47295 16.3169 6.375 16.0703 6.375ZM16.2031 9.69531C16.2031 9.73054 16.1891 9.76432 16.1642 9.78923C16.1393 9.81413 16.1055 9.82812 16.0703 9.82812H14.8843C14.6917 9.82834 14.5038 9.88839 14.3468 9.99998C14.1898 10.1116 14.0713 10.2692 14.0077 10.451C13.9398 10.6436 13.8618 10.8324 13.774 11.0168C13.6898 11.1906 13.6619 11.3863 13.694 11.5767C13.7261 11.7671 13.8168 11.9427 13.9533 12.0793L14.7913 12.9173C14.8161 12.9422 14.8299 12.9759 14.8299 13.011C14.8299 13.0461 14.8161 13.0797 14.7913 13.1046L13.102 14.7927C13.0771 14.8174 13.0434 14.8313 13.0083 14.8313C12.9732 14.8313 12.9396 14.8174 12.9147 14.7927L12.0766 13.9546C11.9401 13.8181 11.7644 13.7275 11.574 13.6953C11.3836 13.6632 11.1879 13.6912 11.0141 13.7753C10.8293 13.8631 10.64 13.9412 10.447 14.0091C10.2654 14.0729 10.1081 14.1914 9.99678 14.3484C9.88545 14.5055 9.82559 14.6931 9.82547 14.8856V16.0703C9.82547 16.1055 9.81148 16.1393 9.78657 16.1642C9.76166 16.1891 9.72788 16.2031 9.69266 16.2031H7.30469C7.26946 16.2031 7.23568 16.1891 7.21077 16.1642C7.18587 16.1393 7.17188 16.1055 7.17188 16.0703V14.8843C7.17166 14.6917 7.11161 14.5038 7.00002 14.3468C6.88844 14.1898 6.73083 14.0713 6.54898 14.0077C6.35643 13.9398 6.16757 13.8618 5.9832 13.774C5.80941 13.6898 5.61373 13.6619 5.42333 13.694C5.23293 13.7261 5.05725 13.8168 4.9207 13.9533L4.08266 14.7913C4.05777 14.8161 4.02411 14.8299 3.98902 14.8299C3.95394 14.8299 3.92027 14.8161 3.89539 14.7913L2.20734 13.102C2.18261 13.0771 2.16872 13.0434 2.16872 13.0083C2.16872 12.9732 2.18261 12.9396 2.20734 12.9147L3.04539 12.0766C3.18192 11.9401 3.27253 11.7644 3.30466 11.574C3.33679 11.3836 3.30884 11.1879 3.22469 11.0141C3.13687 10.8293 3.05885 10.64 2.99094 10.447C2.92678 10.2661 2.80821 10.1095 2.6515 9.99873C2.49479 9.88792 2.30763 9.82833 2.1157 9.82812H0.929688C0.894463 9.82812 0.860682 9.81413 0.835775 9.78923C0.810868 9.76432 0.796875 9.73054 0.796875 9.69531V7.30469C0.796875 7.26946 0.810868 7.23568 0.835775 7.21077C0.860682 7.18587 0.894463 7.17188 0.929688 7.17188H2.1157C2.30834 7.17166 2.49615 7.11161 2.65318 7.00002C2.81021 6.88844 2.9287 6.73083 2.99227 6.54898C3.06022 6.35643 3.13825 6.16757 3.22602 5.9832C3.31017 5.80941 3.33812 5.61373 3.30599 5.42333C3.27386 5.23293 3.18324 5.05725 3.04672 4.9207L2.20867 4.08266C2.18394 4.05777 2.17005 4.02411 2.17005 3.98902C2.17005 3.95394 2.18394 3.92027 2.20867 3.89539L3.89805 2.20734C3.92293 2.18261 3.95659 2.16872 3.99168 2.16872C4.02677 2.16872 4.06043 2.18261 4.08531 2.20734L4.92336 3.04539C5.05991 3.18192 5.23558 3.27253 5.42599 3.30466C5.61639 3.33679 5.81207 3.30884 5.98586 3.22469C6.17066 3.13687 6.35996 3.05885 6.55297 2.99094C6.73386 2.92678 6.89045 2.80821 7.00127 2.6515C7.11208 2.49479 7.17167 2.30763 7.17188 2.1157V0.929688C7.17188 0.894463 7.18587 0.860682 7.21077 0.835775C7.23568 0.810868 7.26946 0.796875 7.30469 0.796875H9.69531C9.73054 0.796875 9.76432 0.810868 9.78923 0.835775C9.81413 0.860682 9.82812 0.894463 9.82812 0.929688V2.1157C9.82834 2.30834 9.88839 2.49615 9.99998 2.65318C10.1116 2.81021 10.2692 2.9287 10.451 2.99227C10.6436 3.06022 10.8324 3.13825 11.0168 3.22602C11.1906 3.31017 11.3863 3.33812 11.5767 3.30599C11.7671 3.27386 11.9427 3.18324 12.0793 3.04672L12.9173 2.20867C12.9422 2.18394 12.9759 2.17005 13.011 2.17005C13.0461 2.17005 13.0797 2.18394 13.1046 2.20867L14.7953 3.89937C14.82 3.92426 14.8339 3.95792 14.8339 3.99301C14.8339 4.0281 14.82 4.06176 14.7953 4.08664L13.9573 4.92469C13.8207 5.06124 13.7301 5.23691 13.698 5.42731C13.6659 5.61771 13.6938 5.8134 13.778 5.98719C13.8658 6.17199 13.9438 6.36129 14.0117 6.5543C14.0755 6.73589 14.1941 6.89322 14.3511 7.00455C14.5081 7.11588 14.6958 7.17574 14.8883 7.17586H16.0703C16.1055 7.17586 16.1393 7.18985 16.1642 7.21476C16.1891 7.23967 16.2031 7.27345 16.2031 7.30867V9.69531Z" fill="white"/>
</g>
<defs>
<clipPath id="clip0_51_13">
<rect width="17" height="17" fill="white"/>
</clipPath>
</defs>
</svg>
