<svg width="331" height="230" viewBox="0 0 331 230" fill="none" xmlns="http://www.w3.org/2000/svg">
<g filter="url(#filter0_i_68_3959)">
<path d="M169.884 54.4875C144.025 84.7533 122.476 61.2818 82.4572 51.3991C15.6257 34.8951 0.000110792 96.6274 0 145.285C-0.000110792 193.943 37.9468 227.435 70.5069 227.435C121.134 227.435 131.337 187.029 157.378 187.029C190.079 187.029 232.067 239.171 283.169 227.435C330.576 216.548 346.79 82.6496 311.49 32.2513C263.467 -36.3101 195.742 24.2216 169.884 54.4875Z" fill="#F1F1FA"/>
</g>
<mask id="mask0_68_3959" style="mask-type:alpha" maskUnits="userSpaceOnUse" x="0" y="0" width="331" height="230">
<path d="M169.884 54.4875C144.025 84.7533 122.476 61.2818 82.4572 51.3991C15.6257 34.8951 0.000110792 96.6274 0 145.285C-0.000110792 193.943 37.9468 227.435 70.5069 227.435C121.134 227.435 131.337 187.029 157.378 187.029C190.079 187.029 232.067 239.171 283.169 227.435C330.576 216.548 346.79 82.6496 311.49 32.2513C263.467 -36.3101 195.742 24.2216 169.884 54.4875Z" fill="#F1F1FA"/>
</mask>
<g mask="url(#mask0_68_3959)">
<path d="M326.806 209.019L330.852 210.671L93.8157 276.454C23.8647 269.024 -109.84 245.466 -85.0486 210.671C-54.06 167.178 -19.2657 141.083 62.2834 141.083C160.427 141.083 173.512 146.426 326.806 209.019Z" fill="#BBBBD6"/>
<path d="M314.853 137.821C353.996 137.821 385.529 146.519 418.692 188.381L312.678 237.311C242.727 229.881 143.273 237.854 168.064 203.06C199.053 159.567 233.304 137.821 314.853 137.821Z" fill="#BBBBD6" stroke="#F1F1FA" stroke-width="4.34928"/>
<path d="M50.2541 201.111V200.611H49.7541H40.2691C32.1304 200.611 25.5083 193.989 25.5083 185.851V167.291C25.5083 162.555 29.3372 158.717 34.0827 158.717C38.8101 158.717 42.6569 162.564 42.6569 167.291V182.963V183.463H43.1569H49.7541H50.2541V182.963V145.639C50.2541 139.182 55.479 133.971 61.9216 133.971C68.3547 133.971 73.5891 139.206 73.5891 145.639V167.497V167.997H74.0891H80.6863H81.1863V167.497V158.012C81.1863 153.276 85.0151 149.437 89.7605 149.437C94.4879 149.437 98.335 153.284 98.335 158.012V170.385C98.335 178.523 91.7129 185.145 83.5742 185.145H74.0891H73.5891V185.645V226.268C73.5891 227.587 72.52 228.656 71.2013 228.656H52.642C51.3233 228.656 50.2541 227.587 50.2541 226.268V201.111Z" fill="#302EA7" stroke="black"/>
<path fill-rule="evenodd" clip-rule="evenodd" d="M260.278 229.625C262.694 230.485 265.293 230.955 268 230.957C268.008 230.957 268.016 230.957 268.024 230.957C268.032 230.957 268.04 230.957 268.048 230.957C270.755 230.955 273.354 230.485 275.771 229.625C275.78 229.625 275.79 229.625 275.799 229.625L281.88 229.638H281.882C282.322 229.638 282.679 229.282 282.68 228.841C282.681 228.401 282.325 228.042 281.883 228.041L279.275 228.036C282.245 226.378 284.815 224.085 286.799 221.342L291.722 218.209C292.093 217.973 292.203 217.479 291.966 217.107C291.73 216.735 291.237 216.625 290.864 216.862L288.688 218.246C290.004 215.655 290.845 212.784 291.099 209.749C291.105 209.737 291.111 209.725 291.116 209.713L293.512 204.123C293.686 203.718 293.498 203.248 293.092 203.075C292.691 202.902 292.217 203.089 292.044 203.494L291.09 205.72C290.825 202.704 289.987 199.826 288.647 197.212C288.646 197.177 288.644 197.142 288.639 197.107L287.778 191.087C287.715 190.65 287.312 190.347 286.874 190.41C286.437 190.472 286.134 190.876 286.196 191.313L286.565 193.89C284.803 191.552 282.577 189.531 279.957 187.952C279.581 187.725 279.089 187.846 278.862 188.224C278.634 188.602 278.756 189.092 279.134 189.32C281.739 190.89 283.927 192.93 285.616 195.299L282.965 194.065C282.563 193.879 282.09 194.053 281.905 194.452C281.718 194.852 281.891 195.326 282.291 195.513L287.134 197.768C288.563 200.493 289.403 203.534 289.557 206.722L287.853 204.164C287.608 203.797 287.113 203.698 286.745 203.943C286.378 204.187 286.279 204.683 286.524 205.05L289.515 209.536C289.2 213.469 287.825 217.108 285.676 220.166C285.548 220.265 285.456 220.396 285.407 220.541C284.306 222.039 283.017 223.389 281.575 224.558C284.083 221.52 285.591 217.628 285.591 213.39C285.591 209.987 284.637 206.76 282.899 204.009L283.192 200.685C283.231 200.245 282.906 199.858 282.467 199.819C282.019 199.786 281.641 200.106 281.602 200.544L281.468 202.06C280.242 200.613 278.767 199.352 277.077 198.333C276.699 198.106 276.208 198.227 275.981 198.605C275.753 198.983 275.875 199.473 276.253 199.701C280.003 201.96 282.583 205.533 283.56 209.652L282.444 209.205C282.038 209.043 281.57 209.241 281.406 209.65C281.242 210.06 281.442 210.524 281.851 210.689L283.885 211.502C283.957 212.123 283.994 212.753 283.994 213.39C283.994 215.194 283.694 216.928 283.14 218.546L282.345 217.651C282.052 217.321 281.547 217.292 281.218 217.585C280.888 217.878 280.859 218.382 281.152 218.712L282.471 220.196C281.354 222.557 279.674 224.603 277.607 226.159C279.11 224.157 280.002 221.671 280.002 218.98C280.002 217.233 279.626 215.573 278.951 214.075L278.957 214.058L279.705 211.962C279.854 211.547 279.638 211.09 279.222 210.942C278.807 210.793 278.349 211.01 278.202 211.425L277.914 212.231C275.755 209.076 272.127 207.003 268.024 207.003C267.583 207.003 267.226 207.36 267.226 207.801C267.226 208.242 267.583 208.6 268.024 208.6C268.428 208.6 268.826 208.623 269.218 208.668L267.525 211.029C267.268 211.387 267.351 211.886 267.709 212.143C267.85 212.244 268.013 212.293 268.173 212.293C268.422 212.293 268.667 212.177 268.823 211.959L270.933 209.014C275.246 210.275 278.405 214.266 278.405 218.98C278.405 221.105 277.763 223.083 276.663 224.73L275.97 223.719C275.72 223.355 275.223 223.262 274.859 223.512C274.495 223.761 274.403 224.258 274.652 224.622L275.626 226.042C274.659 227.082 273.481 227.925 272.162 228.5C269.325 226.597 267.232 224.169 265.894 221.241L267.069 219.655C267.331 219.301 267.257 218.801 266.903 218.538C266.547 218.276 266.048 218.35 265.785 218.704L265.204 219.489C264.538 217.501 264.18 215.311 264.132 212.925C264.026 207.639 265.566 203.326 265.581 203.283C265.731 202.868 265.517 202.41 265.102 202.26C264.689 202.111 264.231 202.323 264.08 202.737C264.058 202.798 263.33 204.861 262.892 207.917L261.274 205.788C261.008 205.437 260.507 205.368 260.155 205.635C259.804 205.902 259.736 206.403 260.003 206.754L262.531 210.081C262.566 210.126 262.605 210.167 262.646 210.203C262.331 214.594 262.855 220.203 266.245 224.98L265.878 225.049C265.445 225.132 265.161 225.55 265.243 225.983C265.317 226.366 265.651 226.632 266.027 226.632C266.076 226.632 266.127 226.628 266.178 226.618L267.356 226.394C268.189 227.352 269.156 228.266 270.276 229.115C269.578 229.269 268.855 229.354 268.113 229.36C268.084 229.36 268.054 229.36 268.024 229.36C267.995 229.36 267.965 229.36 267.935 229.36C264.534 229.331 261.518 227.659 259.644 225.1L260.476 224.004C260.743 223.653 260.673 223.152 260.322 222.885C259.969 222.618 259.47 222.688 259.203 223.039L258.749 223.638C258.042 222.236 257.644 220.654 257.644 218.98C257.644 216.844 258.287 214.793 259.504 213.049C259.756 212.687 259.668 212.19 259.306 211.937C258.943 211.684 258.446 211.773 258.194 212.135C257.823 212.667 257.498 213.223 257.221 213.8L256.975 213.54C256.673 213.219 256.168 213.207 255.847 213.509C255.527 213.813 255.513 214.318 255.817 214.638L256.577 215.441C256.227 216.577 256.047 217.767 256.047 218.98C256.047 221.671 256.939 224.157 258.442 226.159C255.159 223.689 252.855 219.984 252.227 215.741L254.283 213.08C254.552 212.731 254.488 212.23 254.139 211.96C253.79 211.689 253.287 211.756 253.019 212.104L252.054 213.353C252.073 205.473 257.951 198.697 265.742 197.582C266.178 197.52 266.482 197.116 266.419 196.679C266.357 196.243 265.952 195.936 265.516 196.002C260.592 196.706 256.363 199.465 253.651 203.329V201.413C253.651 200.972 253.294 200.615 252.853 200.615C252.411 200.615 252.054 200.972 252.054 201.413V206.108C251.028 208.341 250.457 210.812 250.457 213.39C250.457 214.129 250.503 214.857 250.592 215.572C250.594 215.605 250.598 215.637 250.604 215.669C251.04 219.018 252.422 222.073 254.473 224.557C253.031 223.389 251.741 222.038 250.641 220.54C250.591 220.396 250.501 220.265 250.373 220.167C248.224 217.109 246.849 213.469 246.534 209.536L249.525 205.05C249.769 204.683 249.67 204.187 249.303 203.943C248.935 203.698 248.44 203.797 248.196 204.164L246.491 206.721C246.646 203.549 247.483 200.506 248.932 197.76L253.757 195.513C254.157 195.326 254.33 194.852 254.144 194.452C253.959 194.053 253.485 193.879 253.084 194.065L250.461 195.286C251.193 194.265 252.019 193.3 252.936 192.401C253.251 192.093 253.256 191.587 252.947 191.272C252.639 190.957 252.134 190.953 251.818 191.261C250.964 192.098 250.183 192.988 249.478 193.925L249.852 191.313C249.915 190.876 249.611 190.472 249.175 190.41C248.738 190.35 248.333 190.651 248.271 191.087L247.41 197.107C247.404 197.15 247.401 197.194 247.402 197.238C246.054 199.861 245.223 202.73 244.959 205.721L244.005 203.494C243.831 203.088 243.358 202.901 242.957 203.075C242.551 203.248 242.363 203.718 242.537 204.123L244.932 209.713C244.938 209.725 244.943 209.737 244.949 209.749C245.203 212.784 246.045 215.655 247.36 218.247L245.184 216.862C244.812 216.626 244.319 216.735 244.082 217.107C243.845 217.479 243.955 217.973 244.327 218.209L249.25 221.342C251.234 224.085 253.803 226.378 256.773 228.036L254.165 228.041C253.724 228.042 253.367 228.401 253.368 228.841C253.369 229.282 253.726 229.638 254.167 229.638H254.168L260.249 229.625C260.259 229.625 260.268 229.625 260.278 229.625Z" fill="#302EA7"/>
<path d="M268 230.957L268 230.707H268L268 230.957ZM260.278 229.625L260.362 229.389L260.317 229.373L260.269 229.375L260.278 229.625ZM268.048 230.957L268.047 230.707H268.047L268.048 230.957ZM275.771 229.625L275.78 229.375L275.732 229.373L275.687 229.389L275.771 229.625ZM275.799 229.625L275.8 229.375H275.8L275.799 229.625ZM281.88 229.638L281.879 229.888H281.88V229.638ZM282.68 228.841L282.43 228.841L282.68 228.841ZM281.883 228.041L281.883 228.291H281.883L281.883 228.041ZM279.275 228.036L279.153 227.818L278.318 228.284L279.275 228.286L279.275 228.036ZM286.799 221.342L286.665 221.131L286.624 221.156L286.596 221.195L286.799 221.342ZM291.722 218.209L291.856 218.42L291.856 218.42L291.722 218.209ZM291.966 217.107L291.755 217.241L291.756 217.242L291.966 217.107ZM290.864 216.862L290.73 216.651L290.73 216.651L290.864 216.862ZM288.688 218.246L288.465 218.133L288.052 218.947L288.822 218.457L288.688 218.246ZM291.099 209.749L290.875 209.639L290.854 209.682L290.85 209.728L291.099 209.749ZM291.116 209.713L290.886 209.614L290.886 209.614L291.116 209.713ZM293.512 204.123L293.282 204.025L293.282 204.025L293.512 204.123ZM293.092 203.075L292.993 203.304L292.994 203.305L293.092 203.075ZM292.044 203.494L292.274 203.592L292.274 203.592L292.044 203.494ZM291.09 205.72L290.841 205.742L291.32 205.819L291.09 205.72ZM288.647 197.212L288.397 197.214L288.397 197.274L288.424 197.326L288.647 197.212ZM288.639 197.107L288.886 197.071L288.886 197.071L288.639 197.107ZM287.778 191.087L287.53 191.122L287.53 191.122L287.778 191.087ZM286.874 190.41L286.909 190.657L286.91 190.657L286.874 190.41ZM286.196 191.313L285.949 191.348L285.949 191.348L286.196 191.313ZM286.565 193.89L286.366 194.041L286.813 193.855L286.565 193.89ZM279.957 187.952L279.828 188.166L279.828 188.167L279.957 187.952ZM278.862 188.224L279.076 188.353L279.076 188.353L278.862 188.224ZM279.134 189.32L279.263 189.106L279.263 189.106L279.134 189.32ZM285.616 195.299L285.51 195.526L286.37 195.926L285.82 195.154L285.616 195.299ZM282.965 194.065L283.071 193.838L283.07 193.838L282.965 194.065ZM281.905 194.452L282.131 194.557L282.131 194.557L281.905 194.452ZM282.291 195.513L282.186 195.739L282.186 195.739L282.291 195.513ZM287.134 197.768L287.355 197.652L287.316 197.577L287.239 197.541L287.134 197.768ZM289.557 206.722L289.349 206.86L289.851 207.613L289.807 206.709L289.557 206.722ZM287.853 204.164L287.645 204.303L287.645 204.303L287.853 204.164ZM286.745 203.943L286.884 204.151L286.884 204.151L286.745 203.943ZM286.524 205.05L286.732 204.911L286.732 204.911L286.524 205.05ZM289.515 209.536L289.764 209.556L289.771 209.469L289.723 209.397L289.515 209.536ZM285.676 220.166L285.828 220.365L285.859 220.341L285.881 220.31L285.676 220.166ZM285.407 220.541L285.608 220.689L285.631 220.658L285.643 220.622L285.407 220.541ZM281.575 224.558L281.382 224.399L281.732 224.752L281.575 224.558ZM282.899 204.009L282.65 203.987L282.643 204.071L282.688 204.143L282.899 204.009ZM283.192 200.685L282.943 200.663L282.943 200.663L283.192 200.685ZM282.467 199.819L282.489 199.57L282.486 199.57L282.467 199.819ZM281.602 200.544L281.353 200.522L281.353 200.522L281.602 200.544ZM281.468 202.06L281.277 202.222L281.664 202.678L281.717 202.082L281.468 202.06ZM277.077 198.333L277.206 198.119L277.206 198.119L277.077 198.333ZM275.981 198.605L276.195 198.734L276.195 198.733L275.981 198.605ZM276.253 199.701L276.382 199.487L276.382 199.486L276.253 199.701ZM283.56 209.652L283.467 209.884L283.914 210.063L283.803 209.594L283.56 209.652ZM282.444 209.205L282.351 209.438L282.351 209.438L282.444 209.205ZM281.406 209.65L281.174 209.558L281.406 209.65ZM281.851 210.689L281.758 210.921L281.758 210.921L281.851 210.689ZM283.885 211.502L284.133 211.473L284.116 211.325L283.978 211.27L283.885 211.502ZM283.14 218.546L282.954 218.712L283.238 219.032L283.377 218.627L283.14 218.546ZM282.345 217.651L282.532 217.485L282.532 217.485L282.345 217.651ZM281.218 217.585L281.052 217.398L281.052 217.398L281.218 217.585ZM281.152 218.712L281.339 218.546L281.339 218.546L281.152 218.712ZM282.471 220.196L282.697 220.302L282.767 220.153L282.657 220.029L282.471 220.196ZM277.607 226.159L277.407 226.008L277.757 226.358L277.607 226.159ZM278.951 214.075L278.716 213.989L278.681 214.084L278.723 214.178L278.951 214.075ZM278.957 214.058L279.192 214.145L279.192 214.142L278.957 214.058ZM279.705 211.962L279.47 211.878L279.47 211.878L279.705 211.962ZM279.222 210.942L279.138 211.177L279.138 211.177L279.222 210.942ZM278.202 211.425L278.437 211.509L278.438 211.509L278.202 211.425ZM277.914 212.231L277.708 212.372L277.985 212.776L278.15 212.315L277.914 212.231ZM269.218 208.668L269.421 208.813L269.668 208.468L269.246 208.419L269.218 208.668ZM267.525 211.029L267.728 211.175L267.729 211.175L267.525 211.029ZM267.709 212.143L267.563 212.346L267.563 212.347L267.709 212.143ZM268.823 211.959L268.62 211.814L268.62 211.814L268.823 211.959ZM270.933 209.014L271.003 208.774L270.833 208.725L270.73 208.869L270.933 209.014ZM276.663 224.73L276.457 224.871L276.666 225.176L276.871 224.869L276.663 224.73ZM275.97 223.719L276.176 223.577L276.176 223.577L275.97 223.719ZM274.859 223.512L275 223.718L275.001 223.718L274.859 223.512ZM274.652 224.622L274.445 224.763L274.446 224.763L274.652 224.622ZM275.626 226.042L275.809 226.212L275.945 226.066L275.832 225.901L275.626 226.042ZM272.162 228.5L272.022 228.708L272.136 228.784L272.262 228.729L272.162 228.5ZM265.894 221.241L265.693 221.092L265.605 221.21L265.667 221.344L265.894 221.241ZM267.069 219.655L267.27 219.804L267.27 219.804L267.069 219.655ZM266.903 218.538L267.052 218.337L267.051 218.337L266.903 218.538ZM265.785 218.704L265.585 218.555L265.584 218.556L265.785 218.704ZM265.204 219.489L264.967 219.568L265.119 220.023L265.405 219.638L265.204 219.489ZM264.132 212.925L264.382 212.92V212.92L264.132 212.925ZM265.581 203.283L265.816 203.368L265.816 203.368L265.581 203.283ZM265.102 202.26L265.188 202.025L265.187 202.024L265.102 202.26ZM264.08 202.737L264.315 202.823L264.315 202.823L264.08 202.737ZM262.892 207.917L262.693 208.068L263.055 208.544L263.14 207.953L262.892 207.917ZM261.274 205.788L261.074 205.939L261.075 205.939L261.274 205.788ZM260.155 205.635L260.003 205.436L260.003 205.436L260.155 205.635ZM260.003 206.754L259.804 206.905L259.804 206.905L260.003 206.754ZM262.531 210.081L262.731 209.93L262.73 209.929L262.531 210.081ZM262.646 210.203L262.896 210.221L262.905 210.096L262.809 210.014L262.646 210.203ZM266.245 224.98L266.291 225.225L266.674 225.152L266.448 224.835L266.245 224.98ZM265.878 225.049L265.831 224.804L265.831 224.804L265.878 225.049ZM265.243 225.983L264.998 226.03L264.998 226.03L265.243 225.983ZM266.178 226.618L266.223 226.864L266.224 226.864L266.178 226.618ZM267.356 226.394L267.545 226.23L267.451 226.121L267.31 226.148L267.356 226.394ZM270.276 229.115L270.33 229.359L270.857 229.242L270.427 228.915L270.276 229.115ZM268.113 229.36L268.114 229.61L268.115 229.61L268.113 229.36ZM267.935 229.36L267.933 229.61L267.934 229.61L267.935 229.36ZM259.644 225.1L259.445 224.949L259.333 225.097L259.443 225.248L259.644 225.1ZM260.476 224.004L260.277 223.853L260.277 223.853L260.476 224.004ZM260.322 222.885L260.474 222.686L260.473 222.686L260.322 222.885ZM259.203 223.039L259.004 222.887L259.004 222.888L259.203 223.039ZM258.749 223.638L258.525 223.751L258.706 224.108L258.948 223.789L258.749 223.638ZM259.504 213.049L259.709 213.192L259.71 213.192L259.504 213.049ZM259.306 211.937L259.449 211.732L259.449 211.732L259.306 211.937ZM258.194 212.135L258.399 212.278L258.4 212.278L258.194 212.135ZM257.221 213.8L257.04 213.972L257.289 214.235L257.447 213.908L257.221 213.8ZM256.975 213.54L256.794 213.712L256.794 213.712L256.975 213.54ZM255.847 213.509L255.676 213.327L255.675 213.328L255.847 213.509ZM255.817 214.638L255.998 214.466L255.998 214.466L255.817 214.638ZM256.577 215.441L256.816 215.515L256.859 215.375L256.759 215.269L256.577 215.441ZM258.442 226.159L258.292 226.359L258.642 226.009L258.442 226.159ZM252.227 215.741L252.029 215.588L251.964 215.672L251.979 215.777L252.227 215.741ZM254.283 213.08L254.085 212.927L254.085 212.927L254.283 213.08ZM254.139 211.96L253.986 212.157L253.986 212.158L254.139 211.96ZM253.019 212.104L253.217 212.257L253.218 212.256L253.019 212.104ZM252.054 213.353L251.804 213.352L251.803 214.087L252.252 213.506L252.054 213.353ZM265.742 197.582L265.706 197.335L265.706 197.335L265.742 197.582ZM266.419 196.679L266.667 196.644L266.667 196.644L266.419 196.679ZM265.516 196.002L265.551 196.249L265.553 196.249L265.516 196.002ZM253.651 203.329H253.401V204.12L253.856 203.473L253.651 203.329ZM252.054 206.108L252.281 206.212L252.304 206.163V206.108H252.054ZM250.592 215.572L250.841 215.556L250.841 215.548L250.84 215.541L250.592 215.572ZM250.604 215.669L250.852 215.637L250.851 215.629L250.85 215.622L250.604 215.669ZM254.473 224.557L254.316 224.752L254.666 224.398L254.473 224.557ZM250.641 220.54L250.404 220.621L250.417 220.657L250.44 220.688L250.641 220.54ZM250.373 220.167L250.168 220.311L250.19 220.342L250.221 220.365L250.373 220.167ZM246.534 209.536L246.326 209.397L246.278 209.469L246.285 209.556L246.534 209.536ZM249.525 205.05L249.317 204.911L249.317 204.911L249.525 205.05ZM249.303 203.943L249.442 203.734L249.442 203.734L249.303 203.943ZM248.196 204.164L248.404 204.303L248.404 204.302L248.196 204.164ZM246.491 206.721L246.241 206.709L246.197 207.613L246.699 206.86L246.491 206.721ZM248.932 197.76L248.826 197.534L248.75 197.569L248.711 197.643L248.932 197.76ZM253.757 195.513L253.863 195.739L253.863 195.739L253.757 195.513ZM254.144 194.452L253.917 194.557L253.917 194.557L254.144 194.452ZM253.084 194.065L252.978 193.838L252.978 193.838L253.084 194.065ZM250.461 195.286L250.258 195.14L249.704 195.915L250.567 195.512L250.461 195.286ZM252.936 192.401L253.111 192.58L253.111 192.58L252.936 192.401ZM252.947 191.272L252.768 191.447L252.769 191.447L252.947 191.272ZM251.818 191.261L251.644 191.082L251.643 191.082L251.818 191.261ZM249.478 193.925L249.231 193.89L249.678 194.076L249.478 193.925ZM249.852 191.313L250.1 191.348L250.1 191.348L249.852 191.313ZM249.175 190.41L249.21 190.162L249.208 190.162L249.175 190.41ZM248.271 191.087L248.023 191.051L248.023 191.051L248.271 191.087ZM247.41 197.107L247.162 197.071L247.162 197.071L247.41 197.107ZM247.402 197.238L247.624 197.352L247.653 197.295L247.652 197.232L247.402 197.238ZM244.959 205.721L244.729 205.819L245.208 205.743L244.959 205.721ZM244.005 203.494L243.775 203.592L243.775 203.592L244.005 203.494ZM242.957 203.075L243.055 203.305L243.056 203.304L242.957 203.075ZM242.537 204.123L242.767 204.025L242.767 204.025L242.537 204.123ZM244.932 209.713L245.162 209.614L245.162 209.614L244.932 209.713ZM244.949 209.749L245.198 209.728L245.194 209.681L245.174 209.639L244.949 209.749ZM247.36 218.247L247.226 218.457L247.997 218.948L247.583 218.133L247.36 218.247ZM245.184 216.862L245.319 216.651L245.318 216.651L245.184 216.862ZM244.082 217.107L244.293 217.242L244.293 217.241L244.082 217.107ZM244.327 218.209L244.461 217.999L244.461 217.999L244.327 218.209ZM249.25 221.342L249.452 221.196L249.424 221.157L249.384 221.131L249.25 221.342ZM256.773 228.036L256.774 228.286L257.73 228.284L256.895 227.818L256.773 228.036ZM254.165 228.041L254.165 228.291H254.166L254.165 228.041ZM253.368 228.841L253.118 228.842L253.368 228.841ZM254.168 229.638V229.888H254.169L254.168 229.638ZM260.249 229.625L260.248 229.375H260.248L260.249 229.625ZM268 230.707C265.322 230.705 262.751 230.24 260.362 229.389L260.194 229.86C262.636 230.73 265.264 231.205 268 231.207L268 230.707ZM268 231.207C268.008 231.207 268.016 231.207 268.024 231.207V230.707C268.016 230.707 268.008 230.707 268 230.707L268 231.207ZM268.024 231.207C268.032 231.207 268.04 231.207 268.048 231.207L268.047 230.707C268.04 230.707 268.032 230.707 268.024 230.707V231.207ZM275.687 229.389C273.297 230.24 270.725 230.705 268.047 230.707L268.048 231.207C270.784 231.205 273.412 230.73 275.854 229.86L275.687 229.389ZM275.761 229.875C275.774 229.875 275.786 229.875 275.799 229.875L275.8 229.375C275.793 229.375 275.786 229.375 275.78 229.375L275.761 229.875ZM275.799 229.875L281.879 229.888L281.881 229.388L275.8 229.375L275.799 229.875ZM281.88 229.888H281.882V229.388H281.88V229.888ZM281.882 229.888C282.46 229.888 282.929 229.42 282.93 228.842L282.43 228.841C282.43 229.144 282.184 229.388 281.882 229.388V229.888ZM282.93 228.842C282.931 228.263 282.463 227.792 281.884 227.791L281.883 228.291C282.186 228.292 282.431 228.538 282.43 228.841L282.93 228.842ZM281.884 227.791L279.276 227.786L279.275 228.286L281.883 228.291L281.884 227.791ZM286.596 221.195C284.634 223.909 282.092 226.177 279.153 227.818L279.397 228.254C282.399 226.578 284.996 224.261 287.001 221.488L286.596 221.195ZM291.587 217.999L286.665 221.131L286.933 221.553L291.856 218.42L291.587 217.999ZM291.756 217.242C291.918 217.497 291.843 217.836 291.587 217.999L291.856 218.42C292.344 218.11 292.489 217.462 292.177 216.973L291.756 217.242ZM290.998 217.073C291.255 216.91 291.593 216.986 291.755 217.241L292.177 216.973C291.867 216.484 291.22 216.34 290.73 216.651L290.998 217.073ZM288.822 218.457L290.998 217.073L290.73 216.651L288.554 218.035L288.822 218.457ZM290.85 209.728C290.599 212.731 289.766 215.57 288.465 218.133L288.911 218.359C290.241 215.74 291.092 212.838 291.349 209.77L290.85 209.728ZM290.886 209.614C290.883 209.623 290.879 209.631 290.875 209.639L291.324 209.859C291.332 209.843 291.339 209.827 291.346 209.811L290.886 209.614ZM293.282 204.025L290.886 209.614L291.346 209.811L293.741 204.222L293.282 204.025ZM292.994 203.305C293.272 203.424 293.401 203.746 293.282 204.025L293.741 204.222C293.97 203.689 293.723 203.073 293.191 202.845L292.994 203.305ZM292.274 203.592C292.393 203.315 292.718 203.186 292.993 203.304L293.191 202.845C292.663 202.617 292.042 202.863 291.814 203.396L292.274 203.592ZM291.32 205.819L292.274 203.592L291.814 203.395L290.86 205.622L291.32 205.819ZM288.424 197.326C289.749 199.911 290.579 202.758 290.841 205.742L291.339 205.698C291.071 202.65 290.224 199.74 288.869 197.098L288.424 197.326ZM288.897 197.21C288.896 197.164 288.893 197.118 288.886 197.071L288.391 197.142C288.395 197.166 288.396 197.19 288.397 197.214L288.897 197.21ZM288.886 197.071L288.025 191.051L287.53 191.122L288.391 197.142L288.886 197.071ZM288.025 191.051C287.943 190.479 287.413 190.08 286.839 190.162L286.91 190.657C287.21 190.614 287.488 190.822 287.53 191.122L288.025 191.051ZM286.839 190.162C286.265 190.244 285.867 190.775 285.949 191.348L286.444 191.278C286.401 190.978 286.609 190.7 286.909 190.657L286.839 190.162ZM285.949 191.348L286.318 193.926L286.813 193.855L286.444 191.278L285.949 191.348ZM279.828 188.167C282.421 189.728 284.623 191.728 286.366 194.041L286.765 193.74C284.984 191.376 282.733 189.333 280.086 187.738L279.828 188.167ZM279.076 188.353C279.232 188.094 279.57 188.01 279.828 188.166L280.087 187.738C279.592 187.439 278.945 187.599 278.647 188.095L279.076 188.353ZM279.263 189.106C279.003 188.949 278.919 188.613 279.076 188.353L278.648 188.095C278.349 188.591 278.508 189.235 279.005 189.534L279.263 189.106ZM285.82 195.154C284.11 192.757 281.898 190.694 279.263 189.106L279.005 189.534C281.581 191.087 283.743 193.103 285.412 195.444L285.82 195.154ZM285.722 195.073L283.071 193.838L282.859 194.291L285.51 195.526L285.722 195.073ZM283.07 193.838C282.543 193.594 281.922 193.822 281.678 194.346L282.131 194.557C282.258 194.283 282.583 194.163 282.86 194.292L283.07 193.838ZM281.678 194.346C281.433 194.871 281.661 195.495 282.186 195.739L282.397 195.286C282.122 195.158 282.003 194.832 282.131 194.557L281.678 194.346ZM282.186 195.739L287.028 197.995L287.239 197.541L282.397 195.286L282.186 195.739ZM289.807 206.709C289.65 203.485 288.801 200.409 287.355 197.652L286.912 197.884C288.325 200.577 289.155 203.582 289.308 206.734L289.807 206.709ZM287.645 204.303L289.349 206.86L289.766 206.583L288.061 204.025L287.645 204.303ZM286.884 204.151C287.137 203.982 287.476 204.05 287.645 204.303L288.061 204.025C287.739 203.543 287.089 203.413 286.607 203.735L286.884 204.151ZM286.732 204.911C286.564 204.659 286.632 204.319 286.884 204.151L286.607 203.735C286.124 204.056 285.995 204.707 286.316 205.189L286.732 204.911ZM289.723 209.397L286.732 204.911L286.316 205.189L289.307 209.675L289.723 209.397ZM285.881 220.31C288.054 217.217 289.445 213.535 289.764 209.556L289.265 209.516C288.954 213.403 287.595 217 285.472 220.023L285.881 220.31ZM285.643 220.622C285.677 220.522 285.74 220.432 285.828 220.365L285.524 219.968C285.355 220.097 285.235 220.27 285.17 220.46L285.643 220.622ZM281.732 224.752C283.191 223.57 284.495 222.204 285.608 220.689L285.205 220.393C284.118 221.873 282.843 223.209 281.417 224.364L281.732 224.752ZM281.768 224.717C284.311 221.636 285.841 217.689 285.841 213.39H285.341C285.341 217.568 283.854 221.404 281.382 224.399L281.768 224.717ZM285.841 213.39C285.841 209.94 284.874 206.667 283.11 203.876L282.688 204.143C284.4 206.854 285.341 210.034 285.341 213.39H285.841ZM283.148 204.031L283.441 200.707L282.943 200.663L282.65 203.987L283.148 204.031ZM283.441 200.707C283.493 200.13 283.066 199.621 282.489 199.57L282.445 200.068C282.747 200.095 282.97 200.361 282.943 200.663L283.441 200.707ZM282.486 199.57C281.904 199.527 281.404 199.945 281.353 200.522L281.851 200.567C281.877 200.266 282.134 200.045 282.449 200.068L282.486 199.57ZM281.353 200.522L281.219 202.038L281.717 202.082L281.851 200.566L281.353 200.522ZM281.659 201.898C280.415 200.431 278.92 199.151 277.206 198.119L276.948 198.547C278.615 199.552 280.069 200.796 281.277 202.222L281.659 201.898ZM277.206 198.119C276.71 197.821 276.065 197.979 275.767 198.476L276.195 198.733C276.351 198.475 276.688 198.391 276.948 198.547L277.206 198.119ZM275.767 198.476C275.468 198.972 275.628 199.616 276.124 199.915L276.382 199.486C276.122 199.33 276.039 198.993 276.195 198.734L275.767 198.476ZM276.124 199.915C279.816 202.139 282.355 205.656 283.316 209.71L283.803 209.594C282.811 205.41 280.189 201.78 276.382 199.487L276.124 199.915ZM283.653 209.42L282.537 208.973L282.351 209.438L283.467 209.884L283.653 209.42ZM282.537 208.973C282.004 208.76 281.389 209.019 281.174 209.558L281.638 209.743C281.75 209.463 282.073 209.326 282.351 209.438L282.537 208.973ZM281.174 209.558C280.959 210.096 281.221 210.705 281.758 210.921L281.944 210.457C281.663 210.344 281.526 210.024 281.638 209.743L281.174 209.558ZM281.758 210.921L283.792 211.734L283.978 211.27L281.944 210.456L281.758 210.921ZM283.637 211.531C283.708 212.142 283.744 212.763 283.744 213.39H284.244C284.244 212.744 284.207 212.104 284.133 211.473L283.637 211.531ZM283.744 213.39C283.744 215.166 283.448 216.872 282.904 218.465L283.377 218.627C283.939 216.983 284.244 215.221 284.244 213.39H283.744ZM283.327 218.38L282.532 217.485L282.158 217.817L282.954 218.712L283.327 218.38ZM282.532 217.485C282.147 217.052 281.484 217.014 281.052 217.398L281.384 217.771C281.61 217.571 281.957 217.591 282.158 217.817L282.532 217.485ZM281.052 217.398C280.619 217.783 280.58 218.445 280.965 218.878L281.339 218.546C281.137 218.319 281.158 217.973 281.384 217.771L281.052 217.398ZM280.965 218.878L282.284 220.362L282.657 220.029L281.339 218.546L280.965 218.878ZM282.245 220.089C281.145 222.413 279.492 224.427 277.456 225.959L277.757 226.358C279.857 224.778 281.562 222.701 282.697 220.302L282.245 220.089ZM277.807 226.309C279.341 224.265 280.252 221.727 280.252 218.98H279.752C279.752 221.614 278.879 224.048 277.407 226.008L277.807 226.309ZM280.252 218.98C280.252 217.197 279.868 215.502 279.179 213.972L278.723 214.178C279.384 215.644 279.752 217.27 279.752 218.98H280.252ZM279.185 214.161L279.192 214.145L278.722 213.972L278.716 213.989L279.185 214.161ZM279.192 214.142L279.941 212.046L279.47 211.878L278.721 213.974L279.192 214.142ZM279.941 212.047C280.137 211.501 279.851 210.901 279.306 210.706L279.138 211.177C279.424 211.279 279.572 211.593 279.47 211.878L279.941 212.047ZM279.306 210.706C278.761 210.511 278.16 210.796 277.966 211.341L278.438 211.509C278.539 211.224 278.853 211.075 279.138 211.177L279.306 210.706ZM277.967 211.341L277.679 212.146L278.15 212.315L278.437 211.509L277.967 211.341ZM278.121 212.089C275.917 208.87 272.214 206.753 268.024 206.753V207.253C272.041 207.253 275.593 209.282 277.708 212.372L278.121 212.089ZM268.024 206.753C267.445 206.753 266.976 207.222 266.976 207.801H267.476C267.476 207.498 267.721 207.253 268.024 207.253V206.753ZM266.976 207.801C266.976 208.38 267.445 208.85 268.024 208.85V208.35C267.721 208.35 267.476 208.104 267.476 207.801H266.976ZM268.024 208.85C268.418 208.85 268.807 208.872 269.189 208.916L269.246 208.419C268.845 208.373 268.437 208.35 268.024 208.35V208.85ZM269.014 208.522L267.322 210.883L267.729 211.175L269.421 208.813L269.014 208.522ZM267.322 210.883C266.984 211.354 267.093 212.009 267.563 212.346L267.854 211.94C267.608 211.764 267.552 211.421 267.728 211.175L267.322 210.883ZM267.563 212.347C267.748 212.479 267.962 212.543 268.173 212.543V212.043C268.063 212.043 267.951 212.01 267.854 211.94L267.563 212.347ZM268.173 212.543C268.499 212.543 268.821 212.391 269.026 212.105L268.62 211.814C268.513 211.963 268.345 212.043 268.173 212.043V212.543ZM269.026 212.105L271.137 209.16L270.73 208.869L268.62 211.814L269.026 212.105ZM270.863 209.254C275.072 210.485 278.155 214.38 278.155 218.98H278.655C278.655 214.151 275.419 210.066 271.003 208.774L270.863 209.254ZM278.155 218.98C278.155 221.054 277.528 222.984 276.455 224.591L276.871 224.869C277.997 223.182 278.655 221.156 278.655 218.98H278.155ZM276.869 224.589L276.176 223.577L275.763 223.86L276.457 224.871L276.869 224.589ZM276.176 223.577C275.848 223.1 275.196 222.977 274.718 223.306L275.001 223.718C275.251 223.546 275.592 223.61 275.763 223.86L276.176 223.577ZM274.718 223.305C274.24 223.633 274.119 224.285 274.445 224.763L274.858 224.481C274.687 224.23 274.75 223.889 275 223.718L274.718 223.305ZM274.446 224.763L275.42 226.184L275.832 225.901L274.858 224.48L274.446 224.763ZM275.443 225.872C274.499 226.887 273.349 227.709 272.062 228.271L272.262 228.729C273.613 228.14 274.819 227.277 275.809 226.212L275.443 225.872ZM272.301 228.293C269.5 226.413 267.439 224.021 266.121 221.137L265.667 221.344C267.025 224.318 269.149 226.78 272.022 228.708L272.301 228.293ZM266.095 221.389L267.27 219.804L266.868 219.506L265.693 221.092L266.095 221.389ZM267.27 219.804C267.614 219.338 267.517 218.682 267.052 218.337L266.754 218.739C266.997 218.919 267.048 219.263 266.868 219.506L267.27 219.804ZM267.051 218.337C266.585 217.994 265.93 218.09 265.585 218.555L265.986 218.853C266.166 218.61 266.509 218.559 266.755 218.739L267.051 218.337ZM265.584 218.556L265.003 219.34L265.405 219.638L265.986 218.853L265.584 218.556ZM265.441 219.41C264.784 217.448 264.429 215.284 264.382 212.92L263.882 212.93C263.93 215.338 264.292 217.553 264.967 219.568L265.441 219.41ZM264.382 212.92C264.33 210.302 264.685 207.922 265.056 206.19C265.241 205.325 265.43 204.622 265.573 204.134C265.645 203.891 265.705 203.7 265.748 203.57C265.769 203.505 265.786 203.455 265.798 203.421C265.803 203.404 265.808 203.391 265.811 203.382C265.813 203.377 265.814 203.374 265.815 203.371C265.816 203.369 265.816 203.368 265.816 203.368L265.346 203.197C265.326 203.252 263.775 207.599 263.882 212.93L264.382 212.92ZM265.816 203.368C266.013 202.824 265.732 202.222 265.188 202.025L265.017 202.495C265.302 202.598 265.449 202.913 265.346 203.198L265.816 203.368ZM265.187 202.024C264.645 201.83 264.043 202.107 263.845 202.652L264.315 202.823C264.418 202.539 264.733 202.392 265.018 202.495L265.187 202.024ZM263.845 202.651C263.819 202.724 263.086 204.804 262.645 207.882L263.14 207.953C263.574 204.917 264.297 202.871 264.315 202.823L263.845 202.651ZM263.091 207.766L261.473 205.636L261.075 205.939L262.693 208.068L263.091 207.766ZM261.473 205.637C261.123 205.175 260.466 205.085 260.003 205.436L260.306 205.834C260.548 205.65 260.892 205.698 261.074 205.939L261.473 205.637ZM260.003 205.436C259.542 205.787 259.453 206.444 259.804 206.905L260.202 206.603C260.018 206.361 260.065 206.017 260.306 205.834L260.003 205.436ZM259.804 206.905L262.332 210.232L262.73 209.929L260.202 206.602L259.804 206.905ZM262.332 210.232C262.377 210.291 262.428 210.345 262.483 210.392L262.809 210.014C262.781 209.989 262.754 209.961 262.731 209.93L262.332 210.232ZM262.397 210.185C262.08 214.605 262.604 220.282 266.041 225.124L266.448 224.835C263.106 220.125 262.583 214.582 262.896 210.221L262.397 210.185ZM266.198 224.734L265.831 224.804L265.925 225.295L266.291 225.225L266.198 224.734ZM265.831 224.804C265.263 224.912 264.889 225.461 264.998 226.03L265.489 225.936C265.432 225.639 265.628 225.352 265.925 225.295L265.831 224.804ZM264.998 226.03C265.094 226.533 265.533 226.882 266.027 226.882V226.382C265.769 226.382 265.539 226.199 265.489 225.936L264.998 226.03ZM266.027 226.882C266.092 226.882 266.158 226.876 266.223 226.864L266.132 226.372C266.096 226.379 266.061 226.382 266.027 226.382V226.882ZM266.224 226.864L267.403 226.639L267.31 226.148L266.131 226.373L266.224 226.864ZM267.168 226.558C268.012 227.529 268.992 228.454 270.125 229.314L270.427 228.915C269.321 228.077 268.367 227.175 267.545 226.23L267.168 226.558ZM270.222 228.871C269.541 229.022 268.835 229.104 268.111 229.11L268.115 229.61C268.875 229.604 269.616 229.517 270.33 229.359L270.222 228.871ZM268.024 229.61C268.054 229.61 268.084 229.61 268.114 229.61L268.112 229.11C268.083 229.11 268.054 229.11 268.024 229.11V229.61ZM267.934 229.61C267.964 229.61 267.994 229.61 268.024 229.61V229.11C267.995 229.11 267.965 229.11 267.936 229.11L267.934 229.61ZM267.937 229.11C264.619 229.082 261.676 227.45 259.846 224.952L259.443 225.248C261.361 227.867 264.45 229.581 267.933 229.61L267.937 229.11ZM259.844 225.251L260.675 224.155L260.277 223.853L259.445 224.949L259.844 225.251ZM260.675 224.155C261.025 223.694 260.934 223.036 260.474 222.686L260.171 223.084C260.412 223.268 260.46 223.612 260.277 223.853L260.675 224.155ZM260.473 222.686C260.01 222.335 259.354 222.427 259.004 222.887L259.402 223.19C259.586 222.948 259.928 222.9 260.171 223.084L260.473 222.686ZM259.004 222.888L258.55 223.487L258.948 223.789L259.402 223.19L259.004 222.888ZM258.972 223.525C258.282 222.158 257.894 220.614 257.894 218.98H257.394C257.394 220.694 257.802 222.315 258.525 223.751L258.972 223.525ZM257.894 218.98C257.894 216.895 258.522 214.894 259.709 213.192L259.299 212.906C258.053 214.693 257.394 216.793 257.394 218.98H257.894ZM259.71 213.192C260.04 212.717 259.925 212.064 259.449 211.732L259.163 212.142C259.412 212.315 259.472 212.657 259.299 212.906L259.71 213.192ZM259.449 211.732C258.973 211.399 258.32 211.517 257.989 211.992L258.4 212.278C258.572 212.029 258.913 211.968 259.163 212.142L259.449 211.732ZM257.989 211.992C257.611 212.535 257.279 213.103 256.996 213.691L257.447 213.908C257.718 213.344 258.036 212.799 258.399 212.278L257.989 211.992ZM257.403 213.628L257.157 213.368L256.794 213.712L257.04 213.972L257.403 213.628ZM257.157 213.369C256.759 212.946 256.095 212.932 255.676 213.327L256.019 213.691C256.24 213.483 256.587 213.492 256.794 213.712L257.157 213.369ZM255.675 213.328C255.254 213.726 255.237 214.39 255.635 214.81L255.998 214.466C255.79 214.246 255.799 213.899 256.019 213.691L255.675 213.328ZM255.635 214.81L256.396 215.613L256.759 215.269L255.998 214.466L255.635 214.81ZM256.338 215.367C255.981 216.527 255.797 217.742 255.797 218.98H256.297C256.297 217.791 256.473 216.627 256.816 215.515L256.338 215.367ZM255.797 218.98C255.797 221.727 256.707 224.266 258.242 226.309L258.642 226.009C257.17 224.049 256.297 221.615 256.297 218.98H255.797ZM258.593 225.959C255.36 223.527 253.093 219.88 252.474 215.704L251.979 215.777C252.618 220.088 254.958 223.851 258.292 226.359L258.593 225.959ZM252.425 215.894L254.48 213.233L254.085 212.927L252.029 215.588L252.425 215.894ZM254.48 213.233C254.835 212.775 254.751 212.116 254.292 211.762L253.986 212.158C254.226 212.343 254.27 212.687 254.085 212.927L254.48 213.233ZM254.292 211.762C253.833 211.406 253.173 211.494 252.821 211.951L253.218 212.256C253.401 212.017 253.746 211.971 253.986 212.157L254.292 211.762ZM252.821 211.951L251.856 213.2L252.252 213.506L253.217 212.257L252.821 211.951ZM252.304 213.353C252.323 205.597 258.11 198.927 265.777 197.83L265.706 197.335C257.792 198.467 251.823 205.348 251.804 213.352L252.304 213.353ZM265.777 197.83C266.35 197.748 266.749 197.217 266.667 196.644L266.172 196.714C266.215 197.014 266.006 197.292 265.706 197.335L265.777 197.83ZM266.667 196.644C266.585 196.072 266.055 195.668 265.478 195.755L265.553 196.249C265.85 196.204 266.129 196.413 266.172 196.714L266.667 196.644ZM265.48 195.754C260.485 196.469 256.196 199.268 253.447 203.185L253.856 203.473C256.53 199.662 260.699 196.943 265.551 196.249L265.48 195.754ZM253.901 203.329V201.413H253.401V203.329H253.901ZM253.901 201.413C253.901 200.834 253.432 200.365 252.853 200.365V200.865C253.156 200.865 253.401 201.11 253.401 201.413H253.901ZM252.853 200.365C252.273 200.365 251.804 200.834 251.804 201.413H252.304C252.304 201.11 252.549 200.865 252.853 200.865V200.365ZM251.804 201.413V206.108H252.304V201.413H251.804ZM251.827 206.003C250.786 208.268 250.207 210.775 250.207 213.39H250.707C250.707 210.85 251.269 208.414 252.281 206.212L251.827 206.003ZM250.207 213.39C250.207 214.139 250.254 214.878 250.344 215.603L250.84 215.541C250.752 214.837 250.707 214.119 250.707 213.39H250.207ZM250.343 215.589C250.345 215.631 250.351 215.673 250.359 215.715L250.85 215.622C250.846 215.6 250.843 215.578 250.841 215.556L250.343 215.589ZM250.356 215.701C250.798 219.098 252.2 222.197 254.28 224.717L254.666 224.398C252.644 221.949 251.281 218.937 250.852 215.637L250.356 215.701ZM250.44 220.688C251.553 222.203 252.857 223.57 254.316 224.752L254.63 224.363C253.205 223.208 251.93 221.873 250.842 220.392L250.44 220.688ZM250.221 220.365C250.308 220.432 250.37 220.522 250.404 220.621L250.877 220.459C250.813 220.27 250.693 220.098 250.525 219.969L250.221 220.365ZM246.285 209.556C246.603 213.535 247.994 217.217 250.168 220.311L250.577 220.023C248.453 217 247.094 213.404 246.783 209.516L246.285 209.556ZM246.742 209.675L249.733 205.189L249.317 204.911L246.326 209.397L246.742 209.675ZM249.733 205.189C250.054 204.707 249.924 204.056 249.442 203.734L249.165 204.151C249.417 204.319 249.485 204.659 249.317 204.911L249.733 205.189ZM249.442 203.734C248.959 203.413 248.308 203.543 247.988 204.026L248.404 204.302C248.571 204.051 248.911 203.982 249.165 204.151L249.442 203.734ZM247.988 204.025L246.283 206.583L246.699 206.86L248.404 204.303L247.988 204.025ZM248.711 197.643C247.244 200.422 246.398 203.5 246.241 206.709L246.741 206.734C246.894 203.597 247.721 200.59 249.153 197.877L248.711 197.643ZM249.037 197.987L253.863 195.739L253.652 195.286L248.826 197.534L249.037 197.987ZM253.863 195.739C254.388 195.495 254.615 194.871 254.371 194.346L253.917 194.557C254.045 194.832 253.927 195.158 253.652 195.286L253.863 195.739ZM254.371 194.346C254.128 193.822 253.505 193.594 252.978 193.838L253.189 194.292C253.465 194.163 253.791 194.284 253.917 194.557L254.371 194.346ZM252.978 193.838L250.356 195.059L250.567 195.512L253.189 194.291L252.978 193.838ZM252.761 192.223C251.834 193.131 250.998 194.107 250.258 195.14L250.665 195.431C251.388 194.422 252.205 193.468 253.111 192.58L252.761 192.223ZM252.769 191.447C252.981 191.664 252.978 192.011 252.761 192.223L253.111 192.58C253.525 192.174 253.531 191.511 253.126 191.097L252.769 191.447ZM251.993 191.44C252.21 191.227 252.558 191.231 252.768 191.447L253.126 191.098C252.721 190.683 252.057 190.678 251.644 191.082L251.993 191.44ZM249.678 194.076C250.375 193.149 251.148 192.267 251.993 191.439L251.643 191.082C250.78 191.928 249.991 192.828 249.278 193.775L249.678 194.076ZM249.726 193.961L250.1 191.348L249.605 191.278L249.231 193.89L249.726 193.961ZM250.1 191.348C250.182 190.775 249.783 190.244 249.21 190.162L249.139 190.657C249.439 190.7 249.647 190.978 249.605 191.278L250.1 191.348ZM249.208 190.162C248.638 190.084 248.105 190.477 248.023 191.051L248.518 191.122C248.561 190.825 248.838 190.616 249.141 190.657L249.208 190.162ZM248.023 191.051L247.162 197.071L247.657 197.142L248.518 191.122L248.023 191.051ZM247.162 197.071C247.154 197.129 247.151 197.186 247.152 197.243L247.652 197.232C247.651 197.202 247.653 197.172 247.657 197.142L247.162 197.071ZM245.208 205.743C245.469 202.784 246.292 199.946 247.624 197.352L247.18 197.123C245.817 199.775 244.977 202.676 244.71 205.699L245.208 205.743ZM245.189 205.622L244.234 203.395L243.775 203.592L244.729 205.819L245.189 205.622ZM244.234 203.395C244.006 202.863 243.386 202.616 242.857 202.845L243.056 203.304C243.33 203.185 243.655 203.313 243.775 203.592L244.234 203.395ZM242.858 202.845C242.326 203.073 242.079 203.689 242.307 204.222L242.767 204.025C242.647 203.746 242.776 203.424 243.055 203.305L242.858 202.845ZM242.307 204.222L244.703 209.811L245.162 209.614L242.767 204.025L242.307 204.222ZM244.703 209.811C244.71 209.827 244.717 209.843 244.724 209.858L245.174 209.639C245.17 209.631 245.166 209.623 245.162 209.614L244.703 209.811ZM247.583 218.133C246.282 215.57 245.449 212.73 245.198 209.728L244.7 209.77C244.957 212.838 245.808 215.74 247.137 218.36L247.583 218.133ZM245.05 217.073L247.226 218.457L247.495 218.036L245.319 216.651L245.05 217.073ZM244.293 217.241C244.455 216.986 244.794 216.91 245.051 217.073L245.318 216.651C244.829 216.341 244.182 216.483 243.871 216.973L244.293 217.241ZM244.461 217.999C244.205 217.836 244.13 217.497 244.293 217.242L243.871 216.973C243.56 217.462 243.704 218.11 244.192 218.42L244.461 217.999ZM249.384 221.131L244.461 217.999L244.192 218.42L249.116 221.553L249.384 221.131ZM256.895 227.818C253.957 226.177 251.415 223.909 249.452 221.196L249.047 221.489C251.052 224.261 253.649 226.578 256.651 228.254L256.895 227.818ZM256.773 227.786L254.164 227.791L254.166 228.291L256.774 228.286L256.773 227.786ZM254.165 227.791C253.585 227.792 253.117 228.263 253.118 228.842L253.618 228.841C253.618 228.538 253.862 228.292 254.165 228.291L254.165 227.791ZM253.118 228.842C253.119 229.42 253.588 229.888 254.167 229.888V229.388C253.864 229.388 253.619 229.144 253.618 228.841L253.118 228.842ZM254.167 229.888H254.168V229.388H254.167V229.888ZM254.169 229.888L260.249 229.875L260.248 229.375L254.168 229.388L254.169 229.888ZM260.249 229.875C260.262 229.875 260.275 229.875 260.287 229.875L260.269 229.375C260.262 229.375 260.255 229.375 260.248 229.375L260.249 229.875Z" fill="black"/>
<path d="M309.87 10.7435C317.165 27.4228 309.558 46.8583 292.879 54.154C276.2 61.4496 256.764 53.8427 249.469 37.1634C242.173 20.4842 249.78 1.04865 266.459 -6.24702C283.139 -13.5427 302.574 -5.93577 309.87 10.7435Z" fill="url(#paint0_linear_68_3959)"/>
<path d="M266.548 14.3162C267.671 16.8821 266.501 19.8723 263.935 20.9949C261.369 22.1176 258.379 20.9475 257.256 18.3816C256.133 15.8157 257.303 12.8255 259.869 11.7029C262.435 10.5802 265.426 11.7503 266.548 14.3162Z" fill="url(#paint1_linear_68_3959)"/>
<path d="M297.519 0.889042C298.164 1.63671 298.042 2.61441 297.248 3.07281C296.453 3.5312 295.286 3.2967 294.641 2.54903C293.997 1.80136 294.119 0.823657 294.913 0.365264C295.708 -0.093129 296.875 0.141374 297.519 0.889042Z" fill="url(#paint2_linear_68_3959)"/>
<path d="M309.166 24.5802C310.169 24.9295 310.591 26.338 310.108 27.7261C309.624 29.1142 308.419 29.9563 307.416 29.6069C306.412 29.2576 305.991 27.8491 306.474 26.461C306.957 25.0729 308.163 24.2309 309.166 24.5802Z" fill="url(#paint3_linear_68_3959)"/>
<path d="M291.079 42.892C291.787 46.58 288.814 50.2509 284.439 51.0913C280.063 51.9316 275.942 49.6232 275.233 45.9352C274.525 42.2472 277.498 38.5763 281.874 37.7359C286.249 36.8955 290.371 39.204 291.079 42.892Z" fill="url(#paint4_linear_68_3959)"/>
<path d="M245.565 28.8129C246.345 28.5755 247.762 30.9632 248.732 34.146C249.701 37.3289 249.854 40.1016 249.074 40.3391C248.295 40.5765 246.877 38.1888 245.908 35.0059C244.938 31.8231 244.785 29.0504 245.565 28.8129Z" fill="url(#paint5_linear_68_3959)"/>
<path d="M246.589 28.5008C247.935 28.0911 249.811 30.3391 250.78 33.522C251.75 36.7049 251.444 39.6173 250.099 40.027C248.753 40.4368 246.877 38.1887 245.907 35.0059C244.938 31.823 245.243 28.9106 246.589 28.5008Z" fill="url(#paint6_linear_68_3959)"/>
<path d="M245.443 30.5261C245.67 30.4571 246.405 32.2081 247.083 34.4373C247.762 36.6665 248.128 38.5296 247.902 38.5987C247.675 38.6678 246.94 36.9167 246.262 34.6875C245.583 32.4583 245.217 30.5952 245.443 30.5261Z" fill="#271262"/>
<path d="M273.368 55.7697C273.398 55.338 276.118 55.0416 279.443 55.1076C282.768 55.1736 285.438 55.5771 285.408 56.0088C285.377 56.4405 282.657 56.737 279.333 56.6709C276.008 56.6049 273.337 56.2014 273.368 55.7697Z" fill="url(#paint7_linear_68_3959)"/>
<path d="M273.408 55.2025C273.461 54.4575 276.199 53.9071 279.523 53.9731C282.848 54.0392 285.501 54.6966 285.448 55.4416C285.396 56.1866 282.658 56.7369 279.333 56.6709C276.008 56.6049 273.355 55.9474 273.408 55.2025Z" fill="url(#paint8_linear_68_3959)"/>
<path d="M274.947 56.1274C274.956 56.0018 276.851 55.9375 279.179 55.9837C281.508 56.03 283.389 56.1693 283.38 56.2949C283.371 56.4205 281.476 56.4849 279.147 56.4386C276.819 56.3924 274.938 56.253 274.947 56.1274Z" fill="#2D1D81"/>
<path d="M307.618 42.4487C306.97 42.1536 307.421 39.7701 308.625 37.125C309.83 34.4799 311.332 32.5749 311.98 32.87C312.628 33.1651 312.177 35.5486 310.972 38.1937C309.768 40.8388 308.266 42.7438 307.618 42.4487Z" fill="url(#paint9_linear_68_3959)"/>
<path d="M306.766 42.0612C305.648 41.5519 305.718 38.9948 306.922 36.3497C308.127 33.7046 310.01 31.9732 311.128 32.4824C312.246 32.9917 312.176 35.5488 310.972 38.1939C309.767 40.839 307.884 42.5704 306.766 42.0612Z" fill="url(#paint10_linear_68_3959)"/>
<path d="M308.687 41.3966C308.498 41.3108 309.029 39.7394 309.873 37.8868C310.717 36.0343 311.554 34.6021 311.742 34.688C311.931 34.7739 311.4 36.3453 310.556 38.1978C309.712 40.0503 308.876 41.4825 308.687 41.3966Z" fill="#1C113D"/>
<path d="M307.793 5.73835C307.426 5.98826 306.302 4.97786 305.282 3.48154C304.262 1.98522 303.733 0.569615 304.099 0.319698C304.466 0.0697807 305.59 1.08019 306.61 2.57651C307.63 4.07283 308.16 5.48843 307.793 5.73835Z" fill="url(#paint11_linear_68_3959)"/>
<path d="M307.312 6.06663C306.679 6.49787 305.339 5.63449 304.319 4.13821C303.299 2.64193 302.985 1.07936 303.618 0.648117C304.25 0.216873 305.59 1.08026 306.61 2.57653C307.63 4.07281 307.944 5.63538 307.312 6.06663Z" fill="url(#paint12_linear_68_3959)"/>
<path d="M307.578 4.82861C307.471 4.90133 306.806 4.11075 306.091 3.06282C305.377 2.01488 304.884 1.10641 304.991 1.03369C305.098 0.960978 305.763 1.75155 306.478 2.79949C307.192 3.84743 307.685 4.7559 307.578 4.82861Z" fill="#32187C"/>
<path d="M287.258 19.5184C287.258 21.2689 285.839 22.6879 284.089 22.6879C282.338 22.6879 280.919 21.2689 280.919 19.5184C280.919 17.7679 282.338 16.3489 284.089 16.3489C285.839 16.3489 287.258 17.7679 287.258 19.5184Z" fill="#2B1D53"/>
<path d="M259.874 42.6776C259.078 43.3631 257.507 42.8437 256.364 41.5175C255.222 40.1913 254.94 38.5604 255.736 37.8749C256.532 37.1894 258.103 37.7088 259.246 39.035C260.388 40.3612 260.669 41.992 259.874 42.6776Z" fill="#1C113D"/>
<path d="M303.428 38.067C304.118 38.8584 303.609 40.4329 302.29 41.5837C300.971 42.7346 299.342 43.026 298.651 42.2346C297.961 41.4432 298.47 39.8687 299.789 38.7178C301.108 37.567 302.737 37.2756 303.428 38.067Z" fill="url(#paint13_linear_68_3959)"/>
<path d="M53.7423 161.478C54.1031 160.947 54.3963 158.358 54.5004 157.724C54.812 156.579 55.3948 149.334 55.3948 147.147C55.3948 145.992 55.5022 144.504 55.8748 143.777C56.5336 142.51 57.9792 139.907 59.1588 139.322C58.5031 139.362 56.3573 140.59 55.8748 141.035C55.3229 141.481 54.8114 142.231 54.4674 142.851C54.039 143.599 54.0056 144.423 53.8267 145.266C53.4509 147.035 53.4785 154.845 53.4785 156.427C53.4784 158.009 53.6598 161.451 53.7423 161.478Z" fill="white"/>
<path d="M27.9867 176.258C28.3956 174.995 28.1179 169.577 28.3956 167.356C28.5388 166.21 28.8348 165.038 29.2074 164.312C29.8662 163.045 32.1412 161.438 33.3207 160.854C32.6651 160.894 30.5193 162.121 30.0368 162.567C28.6726 163.668 28.3292 164.556 27.9867 166.17C27.7976 167.062 27.7229 169.624 27.7229 171.206C27.7229 172.788 27.9042 176.23 27.9867 176.258Z" fill="white"/>
<path d="M83.4545 162.787C83.702 160.659 83.5738 158.38 84.2972 156.338C84.7519 155.071 86.3224 153.465 87.1366 152.88C86.684 152.92 85.2027 154.147 84.8697 154.593C83.7631 155.886 83.4545 157.393 83.4545 159.252C83.4545 160.834 83.3976 162.76 83.4545 162.787Z" fill="white"/>
</g>
<path d="M243.803 147.02C243.689 147.013 243.59 147.099 243.582 147.213C243.566 147.449 243.792 148.176 244.265 148.665C244.412 148.818 244.573 148.935 244.743 149.015C244.439 149.17 244.136 149.294 243.792 149.294C243.791 149.294 243.789 149.294 243.788 149.294C243.674 149.294 243.582 149.386 243.581 149.501C243.581 149.615 243.674 149.708 243.788 149.708H243.792C244.333 149.708 244.766 149.476 245.184 149.251C245.546 149.057 245.887 148.874 246.273 148.855C246.387 148.85 246.475 148.753 246.47 148.639C246.465 148.525 246.369 148.436 246.253 148.442C245.897 148.459 245.585 148.581 245.29 148.728C245.034 148.724 244.795 148.612 244.579 148.394C244.169 147.981 243.991 147.349 243.995 147.241C244.003 147.127 243.916 147.028 243.803 147.02Z" fill="#302EA7" stroke="black" stroke-width="0.2"/>
<path d="M244.714 150.044L244.497 150.26C244.417 150.341 244.417 150.472 244.497 150.553C244.538 150.594 244.591 150.614 244.644 150.614C244.697 150.614 244.75 150.594 244.79 150.553L245.006 150.337C245.087 150.256 245.087 150.125 245.006 150.044C244.926 149.963 244.795 149.963 244.714 150.044Z" fill="#302EA7" stroke="black" stroke-width="0.2"/>
<path d="M244.882 153.312C244.994 153.288 245.065 153.178 245.041 153.066C245.018 152.954 244.907 152.883 244.796 152.907C244.492 152.972 244.253 152.965 244.134 152.943C244.007 152.579 243.841 152.219 243.342 151.979C243.239 151.93 243.116 151.973 243.066 152.076C243.017 152.18 243.06 152.303 243.163 152.353C243.564 152.545 243.657 152.823 243.787 153.206C243.91 153.574 244.064 154.031 244.553 154.463C244.592 154.498 244.641 154.515 244.69 154.515C244.747 154.515 244.804 154.491 244.845 154.445C244.921 154.359 244.913 154.228 244.827 154.153C244.534 153.894 244.389 153.631 244.286 153.372C244.303 153.373 244.321 153.373 244.339 153.373C244.504 153.373 244.691 153.353 244.882 153.312Z" fill="#302EA7" stroke="black" stroke-width="0.2"/>
<path d="M247.275 152.606L247.059 152.822C246.978 152.903 246.978 153.034 247.059 153.115C247.1 153.156 247.153 153.176 247.206 153.176C247.259 153.176 247.312 153.156 247.352 153.115L247.568 152.899C247.649 152.818 247.649 152.687 247.568 152.606C247.487 152.525 247.356 152.525 247.275 152.606Z" fill="#302EA7" stroke="black" stroke-width="0.2"/>
<path d="M237.362 149.43C237.527 149.316 237.799 149.235 238.113 149.192C237.814 149.656 237.57 150.158 237.399 150.671C237.363 150.78 237.422 150.897 237.53 150.933C237.552 150.94 237.574 150.944 237.596 150.944C237.683 150.944 237.763 150.889 237.792 150.802C237.984 150.224 238.275 149.662 238.636 149.159C239.116 149.161 239.609 149.248 239.932 149.438C239.965 149.457 240.001 149.467 240.037 149.467C240.108 149.467 240.177 149.43 240.215 149.365C240.273 149.266 240.241 149.139 240.142 149.081C239.823 148.893 239.395 148.788 238.954 148.755C239.059 148.633 239.167 148.515 239.28 148.404C239.45 148.236 239.624 148.066 239.804 147.9C239.836 147.93 239.871 147.959 239.907 147.987C240.107 148.141 240.355 148.259 240.54 148.286C240.55 148.288 240.561 148.288 240.571 148.288C240.672 148.288 240.76 148.214 240.775 148.112C240.792 147.999 240.714 147.893 240.601 147.876C240.485 147.859 240.279 147.763 240.114 147.621C240.5 147.283 240.912 146.966 241.353 146.708C241.392 146.685 241.432 146.663 241.471 146.641C241.704 146.773 241.937 146.947 242.095 147.156C242.162 147.244 242.211 147.332 242.242 147.421C242.244 147.425 242.245 147.428 242.246 147.432C242.296 147.579 242.299 147.728 242.255 147.883C242.224 147.993 242.288 148.107 242.398 148.138C242.417 148.143 242.436 148.146 242.454 148.146C242.545 148.146 242.628 148.086 242.654 147.995C242.711 147.794 242.714 147.592 242.665 147.395C242.702 147.348 242.76 147.279 242.809 147.221C243.073 146.908 243.461 146.448 243.585 146.01C243.696 146.003 243.808 145.999 243.922 145.999C244.716 145.999 245.446 146.191 246.145 146.487C245.854 146.673 245.6 146.909 245.391 147.104L245.339 147.152C245.255 147.23 245.25 147.361 245.328 147.445C245.368 147.489 245.424 147.511 245.479 147.511C245.53 147.511 245.58 147.493 245.62 147.456L245.673 147.407C245.948 147.151 246.262 146.859 246.611 146.701C247.119 146.951 247.614 147.248 248.11 147.557C248.325 147.691 248.525 147.846 248.712 148.021C248.536 148.167 248.364 148.335 248.201 148.524C247.948 148.234 247.483 147.879 247.042 147.741C246.933 147.707 246.817 147.768 246.782 147.877C246.748 147.986 246.809 148.102 246.918 148.136C247.376 148.279 247.796 148.673 247.94 148.854C247.46 149.518 247.213 150.226 247.258 150.827C247.267 150.936 247.357 151.018 247.465 151.018C247.47 151.018 247.475 151.018 247.48 151.018C247.594 151.009 247.68 150.91 247.671 150.796C247.63 150.245 247.91 149.539 248.419 148.909C248.601 148.683 248.799 148.484 249 148.321C249.268 148.631 249.5 148.99 249.693 149.396C249.743 149.499 249.866 149.543 249.969 149.494C250.073 149.445 250.117 149.321 250.067 149.218C249.864 148.791 249.621 148.411 249.339 148.081C249.564 147.946 249.784 147.861 249.982 147.838C250.095 147.825 250.177 147.722 250.164 147.609C250.151 147.495 250.048 147.413 249.934 147.427C249.654 147.459 249.352 147.58 249.051 147.773C248.829 147.557 248.589 147.368 248.329 147.206C247.992 146.996 247.656 146.792 247.315 146.603C247.37 146.614 247.425 146.628 247.481 146.649C247.588 146.688 247.707 146.633 247.746 146.526C247.786 146.419 247.731 146.3 247.623 146.26C247.266 146.129 246.933 146.149 246.631 146.25C245.791 145.854 244.909 145.585 243.922 145.585C243.816 145.585 243.712 145.588 243.61 145.594C243.6 145.548 243.586 145.504 243.566 145.461C243.519 145.357 243.396 145.312 243.292 145.36C243.188 145.407 243.143 145.53 243.19 145.633C242.557 145.718 241.991 145.91 241.473 146.172C241.135 146.008 240.821 145.923 240.675 145.923C240.561 145.923 240.468 146.015 240.468 146.13C240.468 146.244 240.561 146.337 240.675 146.337C240.731 146.337 240.857 146.368 241.017 146.428C240.61 146.678 240.232 146.969 239.873 147.28C239.866 147.256 239.861 147.231 239.859 147.206C239.847 147.093 239.746 147.01 239.632 147.021C239.518 147.032 239.435 147.134 239.447 147.248C239.458 147.36 239.492 147.469 239.547 147.573C239.356 147.749 239.171 147.929 238.989 148.109C238.789 148.306 238.602 148.521 238.427 148.747C237.9 148.772 237.409 148.894 237.126 149.089C237.032 149.154 237.009 149.283 237.074 149.377C237.138 149.471 237.267 149.495 237.362 149.43ZM243.126 146.061C242.974 146.383 242.66 146.756 242.493 146.954C242.487 146.961 242.481 146.968 242.475 146.975C242.459 146.952 242.443 146.929 242.425 146.906C242.285 146.72 242.102 146.559 241.907 146.424C242.303 146.248 242.708 146.128 243.126 146.061Z" fill="#302EA7" stroke="black" stroke-width="0.2"/>
<path d="M248.36 152.786C248.37 152.788 248.379 152.789 248.389 152.789C248.491 152.789 248.579 152.714 248.594 152.611C248.622 152.414 248.551 152.215 248.389 152.034C248.288 151.921 248.085 151.755 247.936 151.755C247.934 151.755 247.932 151.755 247.929 151.755C247.815 151.759 247.726 151.855 247.729 151.969C247.733 152.069 247.806 152.15 247.901 152.166C247.974 152.201 248.208 152.382 248.184 152.552C248.168 152.665 248.246 152.77 248.36 152.786Z" fill="#302EA7" stroke="black" stroke-width="0.2"/>
<path d="M240.51 152.11C240.227 152.195 239.725 152.687 239.648 152.879C239.605 152.985 239.657 153.106 239.763 153.148C239.788 153.158 239.815 153.163 239.84 153.163C239.921 153.163 239.998 153.115 240.031 153.036C240.089 152.923 240.482 152.551 240.629 152.506C240.739 152.473 240.801 152.358 240.768 152.248C240.735 152.139 240.62 152.077 240.51 152.11Z" fill="#302EA7" stroke="black" stroke-width="0.2"/>
<path d="M241.616 155.541C241.906 155.893 242.236 156.291 242.841 156.577C242.869 156.591 242.899 156.597 242.929 156.597C243.006 156.597 243.081 156.554 243.116 156.479C243.165 156.376 243.121 156.252 243.018 156.203C242.673 156.04 242.431 155.833 242.227 155.616C242.271 155.604 242.317 155.592 242.365 155.58C242.809 155.464 243.362 155.319 243.605 155.61C243.646 155.66 243.705 155.685 243.764 155.685C243.811 155.685 243.858 155.67 243.896 155.637C243.984 155.564 243.996 155.434 243.923 155.346C243.512 154.851 242.788 155.041 242.26 155.179C242.135 155.212 242.015 155.243 241.92 155.26C241.522 154.778 241.104 154.286 240.051 154.212C239.937 154.204 239.838 154.29 239.83 154.404C239.822 154.518 239.908 154.617 240.022 154.625C240.91 154.687 241.222 155.064 241.616 155.541Z" fill="#302EA7" stroke="black" stroke-width="0.2"/>
<path d="M251.142 153.336C251.084 153.237 250.957 153.204 250.859 153.262C250.824 153.283 250.759 153.323 250.676 153.375C250.713 153.06 250.732 152.735 250.732 152.397C250.732 152.102 250.718 151.812 250.689 151.527C250.85 151.236 250.951 150.924 250.903 150.571C250.888 150.458 250.784 150.378 250.67 150.394C250.601 150.403 250.545 150.445 250.515 150.503C250.487 150.386 250.456 150.271 250.423 150.157C250.391 150.047 250.275 149.984 250.166 150.017C250.056 150.049 249.993 150.164 250.026 150.274C250.135 150.645 250.214 151.034 250.262 151.436C250.165 151.593 250.047 151.75 249.927 151.91C249.922 151.916 249.917 151.923 249.913 151.929C249.881 151.888 249.845 151.844 249.805 151.794C249.481 151.389 248.939 150.71 249.139 150.184C249.179 150.077 249.125 149.957 249.018 149.917C248.911 149.876 248.792 149.93 248.751 150.037C248.468 150.784 249.103 151.578 249.482 152.052C249.543 152.129 249.614 152.218 249.658 152.28C249.48 152.54 249.327 152.815 249.254 153.126C249.228 153.238 249.298 153.349 249.409 153.375C249.425 153.379 249.44 153.38 249.456 153.38C249.55 153.38 249.635 153.316 249.658 153.22C249.745 152.842 250.006 152.494 250.258 152.158C250.276 152.134 250.294 152.11 250.312 152.086C250.316 152.189 250.318 152.293 250.318 152.397C250.318 152.845 250.283 153.271 250.214 153.673C249.854 153.916 249.463 154.2 249.364 154.354C249.301 154.45 249.329 154.578 249.425 154.64C249.46 154.663 249.499 154.674 249.537 154.674C249.605 154.674 249.671 154.64 249.711 154.579C249.743 154.532 249.885 154.416 250.082 154.271C249.977 154.657 249.836 155.018 249.66 155.351C249.571 155.518 249.474 155.678 249.368 155.831C249.029 155.932 248.71 155.934 248.406 155.837C247.945 155.689 247.555 155.333 247.225 154.958C247.652 154.859 248.109 154.799 248.553 154.754C248.667 154.743 248.75 154.641 248.738 154.528C248.727 154.414 248.625 154.331 248.512 154.342C247.232 154.47 245.84 154.727 245.215 155.663C245.152 155.758 245.178 155.886 245.273 155.95C245.308 155.973 245.348 155.985 245.387 155.985C245.454 155.985 245.52 155.952 245.56 155.893C245.82 155.503 246.262 155.251 246.784 155.08C247.179 155.551 247.662 156.034 248.28 156.231C248.473 156.293 248.669 156.324 248.869 156.324C248.905 156.324 248.941 156.323 248.977 156.321C248.591 156.743 248.125 157.099 247.58 157.384C247.455 157.45 247.33 157.518 247.202 157.588C246.856 157.498 246.477 157.308 246.182 157.135C246.351 157.082 246.527 157.018 246.707 156.937C246.811 156.89 246.857 156.767 246.81 156.663C246.763 156.559 246.641 156.512 246.537 156.559C245.966 156.817 245.43 156.895 245 156.958C244.618 157.014 244.288 157.062 244.043 157.217C243.946 157.278 243.917 157.406 243.979 157.503C244.018 157.565 244.085 157.599 244.154 157.599C244.192 157.599 244.23 157.589 244.264 157.567C244.435 157.459 244.711 157.419 245.06 157.368C245.234 157.342 245.424 157.314 245.628 157.274C245.754 157.359 246.025 157.534 246.352 157.697C246.475 157.759 246.594 157.813 246.709 157.858C245.819 158.343 244.899 158.795 243.921 158.795C243.082 158.795 242.324 158.673 241.651 158.431C241.684 158.254 241.696 158.074 241.688 157.893C241.776 157.879 241.875 157.855 241.987 157.828C242.297 157.753 242.682 157.66 242.997 157.769C243.105 157.806 243.223 157.749 243.261 157.641C243.298 157.533 243.241 157.415 243.133 157.378C242.703 157.229 242.233 157.343 241.89 157.426C241.809 157.445 241.71 157.469 241.634 157.482C241.595 157.302 241.537 157.121 241.458 156.941C241.207 156.37 240.806 155.94 240.651 155.821C240.56 155.752 240.43 155.769 240.361 155.86C240.292 155.951 240.309 156.081 240.4 156.15C240.464 156.199 240.84 156.563 241.079 157.107C241.166 157.307 241.224 157.504 241.254 157.699C241.255 157.711 241.257 157.722 241.259 157.733C241.284 157.915 241.284 158.095 241.259 158.272C240.989 158.15 240.735 158.006 240.497 157.841C240.403 157.776 240.274 157.799 240.209 157.893C240.143 157.987 240.167 158.116 240.261 158.181C240.539 158.375 240.838 158.541 241.156 158.68C241.113 158.799 241.058 158.917 240.991 159.033C240.934 159.133 240.968 159.259 241.067 159.316C241.1 159.335 241.135 159.344 241.17 159.344C241.242 159.344 241.311 159.306 241.35 159.24C241.427 159.106 241.49 158.97 241.541 158.832C242.251 159.082 243.046 159.209 243.921 159.209C245.116 159.209 246.227 158.597 247.208 158.057C247.227 158.046 247.246 158.036 247.265 158.025C247.373 158.045 247.475 158.055 247.57 158.055C247.672 158.055 247.766 158.044 247.853 158.022C247.964 157.994 248.031 157.881 248.003 157.77C247.992 157.726 247.967 157.689 247.935 157.662C248.621 157.276 249.187 156.78 249.626 156.182C249.935 156.07 250.254 155.891 250.586 155.644C250.678 155.576 250.697 155.446 250.629 155.355C250.561 155.263 250.431 155.244 250.339 155.312C250.238 155.387 250.138 155.455 250.04 155.516C250.292 155.033 250.476 154.499 250.591 153.919C250.749 153.815 250.913 153.711 251.069 153.619C251.168 153.561 251.2 153.434 251.142 153.336Z" fill="#302EA7" stroke="black" stroke-width="0.2"/>
<path d="M239.124 156.329C239.223 156.035 239.357 155.785 239.509 155.617C239.585 155.532 239.579 155.401 239.494 155.325C239.409 155.248 239.278 155.254 239.202 155.339C239.074 155.48 238.965 155.655 238.874 155.845C238.756 155.612 238.626 155.377 238.5 155.149C238.159 154.532 237.81 153.9 237.636 153.234C237.701 153.012 237.781 152.822 237.874 152.655C237.88 152.661 237.885 152.667 237.891 152.673C238.191 152.978 238.813 153.611 238.813 154.09C238.813 154.204 238.906 154.297 239.02 154.297C239.134 154.297 239.227 154.204 239.227 154.09C239.227 153.442 238.55 152.753 238.187 152.383C238.162 152.358 238.136 152.331 238.112 152.306C238.417 151.938 238.806 151.702 239.235 151.441C239.311 151.395 239.387 151.349 239.464 151.301C239.562 151.241 239.591 151.113 239.531 151.016C239.471 150.919 239.343 150.889 239.246 150.949C239.17 150.996 239.095 151.042 239.02 151.087C238.528 151.386 238.05 151.677 237.685 152.183C237.684 152.185 237.682 152.187 237.681 152.189C237.68 152.191 237.679 152.192 237.678 152.194C237.624 152.27 237.572 152.35 237.524 152.437C237.523 152.423 237.523 152.41 237.523 152.397C237.523 152.17 237.54 151.938 237.575 151.706C237.591 151.593 237.513 151.487 237.4 151.471C237.287 151.454 237.182 151.532 237.165 151.645C237.128 151.897 237.109 152.15 237.109 152.397C237.109 152.685 237.146 152.964 237.209 153.234C237.115 153.593 237.055 154.018 237.036 154.529C237.032 154.643 237.121 154.739 237.236 154.743C237.238 154.744 237.241 154.744 237.243 154.744C237.354 154.744 237.446 154.656 237.45 154.544C237.456 154.371 237.467 154.21 237.483 154.059C237.67 154.503 237.905 154.929 238.137 155.349C238.299 155.641 238.451 155.917 238.585 156.195C238.614 156.255 238.645 156.315 238.676 156.374C238.522 156.912 238.499 157.453 238.619 157.673C238.657 157.742 238.728 157.781 238.801 157.781C238.835 157.781 238.869 157.772 238.9 157.755C239.001 157.701 239.038 157.575 238.983 157.474C238.956 157.423 238.938 157.211 238.987 156.892C239.142 157.12 239.313 157.332 239.498 157.528C239.539 157.57 239.594 157.592 239.648 157.592C239.7 157.592 239.751 157.573 239.791 157.535C239.874 157.456 239.877 157.325 239.798 157.242C239.542 156.972 239.316 156.666 239.124 156.329Z" fill="#302EA7" stroke="black" stroke-width="0.2"/>
<path d="M245.248 152.365C245.389 152.506 245.574 152.576 245.759 152.576C245.945 152.576 246.13 152.506 246.271 152.365L246.536 152.099C246.602 152.034 246.638 151.946 246.638 151.853C246.638 151.76 246.602 151.673 246.536 151.607L246.006 151.077C245.94 151.011 245.852 150.975 245.759 150.975C245.667 150.975 245.579 151.011 245.513 151.077L245.248 151.342C244.966 151.624 244.966 152.083 245.248 152.365L245.248 152.365ZM245.541 151.635L245.759 151.416L246.197 151.853L245.978 152.072C245.858 152.192 245.661 152.192 245.541 152.072C245.42 151.951 245.42 151.755 245.541 151.635Z" fill="#302EA7" stroke="black" stroke-width="0.2"/>
<path d="M238.441 150.265C238.359 150.345 238.356 150.476 238.435 150.558C238.476 150.6 238.53 150.622 238.585 150.622C238.636 150.622 238.688 150.602 238.728 150.564C238.849 150.448 239.093 150.396 239.237 150.422C239.349 150.443 239.457 150.368 239.478 150.256C239.498 150.143 239.423 150.035 239.311 150.015C239.062 149.97 238.673 150.042 238.441 150.265Z" fill="#302EA7" stroke="black" stroke-width="0.2"/>
<path d="M242.305 154.244C242.346 154.285 242.4 154.306 242.454 154.306C242.506 154.306 242.558 154.287 242.598 154.248C242.68 154.168 242.682 154.037 242.602 153.955C242.396 153.743 241.95 152.674 242.208 152.041C242.365 151.657 242.426 150.976 242.37 150.264C242.341 149.899 242.234 149.007 241.87 148.602C241.794 148.517 241.663 148.51 241.578 148.587C241.493 148.663 241.486 148.794 241.562 148.879C241.753 149.091 241.904 149.634 241.957 150.296C241.984 150.642 241.982 150.982 241.954 151.273C241.564 150.604 240.975 150.35 240.625 150.199C240.543 150.164 240.473 150.134 240.425 150.107C240.325 150.051 240.199 150.087 240.143 150.187C240.088 150.287 240.124 150.413 240.223 150.469C240.29 150.506 240.37 150.54 240.461 150.58C240.885 150.762 241.521 151.036 241.799 151.955C241.521 152.771 242.004 153.933 242.305 154.244Z" fill="#302EA7" stroke="black" stroke-width="0.2"/>
<path d="M212.207 150.093L212.207 150.093L212.209 150.092C213.699 149.022 215.385 148.905 217.091 149.251C218.801 149.598 220.516 150.408 222.045 151.175L222.046 151.175C223.843 152.059 225.717 152.669 227.746 153.066L227.746 153.066C229.052 153.318 230.01 153.129 230.85 152.66C231.629 152.226 232.301 151.553 233.051 150.801C233.1 150.753 233.148 150.704 233.197 150.655C233.443 150.409 233.646 150.41 233.739 150.459C233.822 150.503 233.894 150.625 233.802 150.825C232.76 152.422 231.459 153.342 229.964 153.678C228.463 154.016 226.747 153.769 224.872 152.994C224.013 152.639 223.145 152.201 222.264 151.756C222.146 151.697 222.028 151.637 221.909 151.578C220.908 151.074 219.89 150.576 218.86 150.201C216.797 149.449 214.668 149.187 212.501 150.379L212.501 150.379L212.495 150.383C212.36 150.466 212.235 150.421 212.169 150.339C212.135 150.297 212.121 150.251 212.125 150.213C212.128 150.18 212.145 150.136 212.207 150.093Z" fill="#302EA7" stroke="black" stroke-width="0.3"/>
<path d="M236.336 146.528L236.336 146.528C236.538 146.775 236.475 147.079 236.29 147.259C236.198 147.348 236.082 147.399 235.964 147.399C235.85 147.398 235.715 147.348 235.581 147.203C233.24 144.335 230.263 143.566 227.046 143.764C224.228 143.937 221.21 144.852 218.258 145.748C217.852 145.872 217.446 145.995 217.043 146.115C213.696 147.116 210.49 147.951 207.757 147.544C206.396 147.341 205.154 146.831 204.071 145.878C202.987 144.923 202.053 143.519 201.321 141.516L201.321 141.516L201.318 141.509C201.295 141.456 201.303 141.413 201.327 141.374C201.355 141.33 201.409 141.286 201.48 141.259C201.551 141.232 201.624 141.226 201.681 141.241C201.733 141.254 201.772 141.283 201.795 141.337L201.795 141.337L201.797 141.341C202.586 143.035 203.613 144.478 204.943 145.46C206.275 146.445 207.903 146.961 209.878 146.814C212.732 146.62 215.426 145.705 218.072 144.806C218.617 144.621 219.16 144.436 219.702 144.259C222.681 143.304 225.758 142.544 228.633 142.688C231.5 142.831 234.165 143.872 236.336 146.528Z" fill="#302EA7" stroke="black" stroke-width="0.3"/>
<path d="M251.651 156.475C251.16 157.67 249.606 159.371 247.463 160.238C246.538 160.612 246.673 161.21 247.152 161.154C248.706 160.974 250.98 159.322 251.994 157.457C253.044 155.527 252.457 154.513 251.651 156.475Z" fill="#302EA7" stroke="black" stroke-width="0.2"/>
<path d="M242.465 161.203C241.406 161.249 239.678 160.756 238.452 159.622C237.923 159.133 237.49 159.404 237.656 159.7C238.195 160.66 240.068 161.638 241.786 161.729C243.563 161.822 244.206 161.129 242.465 161.203Z" fill="#302EA7" stroke="black" stroke-width="0.2"/>
<defs>
<filter id="filter0_i_68_3959" x="0" y="0.818359" width="330.546" height="234.476" filterUnits="userSpaceOnUse" color-interpolation-filters="sRGB">
<feFlood flood-opacity="0" result="BackgroundImageFix"/>
<feBlend mode="normal" in="SourceGraphic" in2="BackgroundImageFix" result="shape"/>
<feColorMatrix in="SourceAlpha" type="matrix" values="0 0 0 0 0 0 0 0 0 0 0 0 0 0 0 0 0 0 127 0" result="hardAlpha"/>
<feOffset dy="6.1386"/>
<feGaussianBlur stdDeviation="8.1848"/>
<feComposite in2="hardAlpha" operator="arithmetic" k2="-1" k3="1"/>
<feColorMatrix type="matrix" values="0 0 0 0 0 0 0 0 0 0 0 0 0 0 0 0 0 0 0.25 0"/>
<feBlend mode="normal" in2="shape" result="effect1_innerShadow_68_3959"/>
</filter>
<linearGradient id="paint0_linear_68_3959" x1="262.808" y1="-14.7931" x2="292.879" y2="54.154" gradientUnits="userSpaceOnUse">
<stop stop-color="#32187C"/>
<stop offset="1" stop-color="#302EA7"/>
</linearGradient>
<linearGradient id="paint1_linear_68_3959" x1="261.092" y1="11.4042" x2="263.288" y2="21.164" gradientUnits="userSpaceOnUse">
<stop stop-color="#1C113D"/>
<stop offset="1" stop-color="#302EA7"/>
</linearGradient>
<linearGradient id="paint2_linear_68_3959" x1="295.784" y1="0.170883" x2="296.381" y2="3.26621" gradientUnits="userSpaceOnUse">
<stop stop-color="#32187C"/>
<stop offset="1" stop-color="#302EA7"/>
</linearGradient>
<linearGradient id="paint3_linear_68_3959" x1="307.969" y1="24.5665" x2="309.367" y2="29.4024" gradientUnits="userSpaceOnUse">
<stop stop-color="#32187C"/>
<stop offset="1" stop-color="#302EA7"/>
</linearGradient>
<linearGradient id="paint4_linear_68_3959" x1="281.874" y1="37.7359" x2="284.439" y2="51.0912" gradientUnits="userSpaceOnUse">
<stop stop-color="#1C113D"/>
<stop offset="1" stop-color="#302EA7"/>
</linearGradient>
<linearGradient id="paint5_linear_68_3959" x1="246.96" y1="28.9423" x2="252.019" y2="37.704" gradientUnits="userSpaceOnUse">
<stop stop-color="#32187C"/>
<stop offset="1" stop-color="#302EA7"/>
</linearGradient>
<linearGradient id="paint6_linear_68_3959" x1="247.864" y1="28.5991" x2="252.165" y2="38.4737" gradientUnits="userSpaceOnUse">
<stop stop-color="#32187C"/>
<stop offset="1" stop-color="#302EA7"/>
</linearGradient>
<linearGradient id="paint7_linear_68_3959" x1="278.426" y1="55.1183" x2="278.473" y2="56.7157" gradientUnits="userSpaceOnUse">
<stop stop-color="#32187C"/>
<stop offset="1" stop-color="#302EA7"/>
</linearGradient>
<linearGradient id="paint8_linear_68_3959" x1="278.466" y1="54.0019" x2="278.604" y2="56.7325" gradientUnits="userSpaceOnUse">
<stop stop-color="#1C113D"/>
<stop offset="1" stop-color="#302EA7"/>
</linearGradient>
<linearGradient id="paint9_linear_68_3959" x1="309.403" y1="32.9613" x2="312.982" y2="41.1367" gradientUnits="userSpaceOnUse">
<stop stop-color="#32187C"/>
<stop offset="1" stop-color="#302EA7"/>
</linearGradient>
<linearGradient id="paint10_linear_68_3959" x1="308.472" y1="32.5165" x2="311.674" y2="41.1967" gradientUnits="userSpaceOnUse">
<stop stop-color="#2B1961"/>
<stop offset="1" stop-color="#302EA7"/>
</linearGradient>
<linearGradient id="paint11_linear_68_3959" x1="305.632" y1="0.350972" x2="307.224" y2="5.40348" gradientUnits="userSpaceOnUse">
<stop stop-color="#32187C"/>
<stop offset="1" stop-color="#302EA7"/>
</linearGradient>
<linearGradient id="paint12_linear_68_3959" x1="305.118" y1="0.608182" x2="306.652" y2="5.86143" gradientUnits="userSpaceOnUse">
<stop stop-color="#32187C"/>
<stop offset="1" stop-color="#302EA7"/>
</linearGradient>
<linearGradient id="paint13_linear_68_3959" x1="300.609" y1="37.6853" x2="301.642" y2="42.5799" gradientUnits="userSpaceOnUse">
<stop stop-color="#21183C"/>
<stop offset="1" stop-color="#302EA7"/>
</linearGradient>
</defs>
</svg>
