<svg width="32" height="32" viewBox="0 0 32 32" fill="none" xmlns="http://www.w3.org/2000/svg">
<path d="M20.0001 9.99985L9.58755 20.5873C9.24284 20.9678 9.05762 21.4662 9.07026 21.9795C9.08289 22.4927 9.29241 22.9814 9.65544 23.3445C10.0185 23.7075 10.5072 23.917 11.0204 23.9296C11.5337 23.9423 12.0321 23.7571 12.4126 23.4123L24.8251 10.8248C25.5145 10.0639 25.8849 9.06706 25.8597 8.04058C25.8344 7.01411 25.4153 6.03666 24.6893 5.31061C23.9632 4.58456 22.9858 4.16552 21.9593 4.14025C20.9328 4.11498 19.936 4.48541 19.1751 5.17485L6.76255 17.7623C5.6387 18.8862 5.00732 20.4105 5.00732 21.9998C5.00732 23.5892 5.6387 25.1135 6.76255 26.2373C7.88641 27.3612 9.41068 27.9926 11.0001 27.9926C12.5894 27.9926 14.1137 27.3612 15.2376 26.2373L25.5001 15.9998" stroke="white" stroke-width="2.03897" stroke-linecap="round" stroke-linejoin="round"/>
</svg>
