<svg width="25" height="25" viewBox="0 0 25 25" fill="none" xmlns="http://www.w3.org/2000/svg">
<g id="vuesax/linear/setting-2">
<g id="setting-2">
<path id="Vector" d="M12.2339 15.2923C13.923 15.2923 15.2923 13.9229 15.2923 12.2338C15.2923 10.5447 13.923 9.17535 12.2339 9.17535C10.5447 9.17535 9.17542 10.5447 9.17542 12.2338C9.17542 13.9229 10.5447 15.2923 12.2339 15.2923Z" stroke="white" stroke-width="1.52923" stroke-miterlimit="10" stroke-linecap="round" stroke-linejoin="round"/>
<path id="Vector_2" d="M2.03906 13.131V11.3367C2.03906 10.2764 2.90562 9.39967 3.97608 9.39967C5.82135 9.39967 6.57577 8.09473 5.64804 6.49414C5.11791 5.5766 5.43395 4.38381 6.36168 3.85367L8.12538 2.84438C8.93078 2.36523 9.97065 2.65068 10.4498 3.45608L10.562 3.64978C11.4795 5.25037 12.9883 5.25037 13.9161 3.64978L14.0282 3.45608C14.5074 2.65068 15.5472 2.36523 16.3526 2.84438L18.1163 3.85367C19.0441 4.38381 19.3601 5.5766 18.83 6.49414C17.9022 8.09473 18.6567 9.39967 20.5019 9.39967C21.5622 9.39967 22.4389 10.2662 22.4389 11.3367V13.131C22.4389 14.1912 21.5724 15.068 20.5019 15.068C18.6567 15.068 17.9022 16.3729 18.83 17.9735C19.3601 18.9013 19.0441 20.0839 18.1163 20.614L16.3526 21.6233C15.5472 22.1024 14.5074 21.817 14.0282 21.0116L13.9161 20.8179C12.9985 19.2173 11.4897 19.2173 10.562 20.8179L10.4498 21.0116C9.97065 21.817 8.93078 22.1024 8.12538 21.6233L6.36168 20.614C5.43395 20.0839 5.11791 18.8911 5.64804 17.9735C6.57577 16.3729 5.82135 15.068 3.97608 15.068C2.90562 15.068 2.03906 14.1912 2.03906 13.131Z" stroke="white" stroke-width="1.52923" stroke-miterlimit="10" stroke-linecap="round" stroke-linejoin="round"/>
</g>
</g>
</svg>
