<svg width="32" height="32" viewBox="0 0 32 32" fill="none" xmlns="http://www.w3.org/2000/svg">
<path d="M16 27.9999C22.6274 27.9999 28 22.6274 28 15.9999C28 9.37252 22.6274 3.99994 16 3.99994C9.37258 3.99994 4 9.37252 4 15.9999C4 22.6274 9.37258 27.9999 16 27.9999Z" stroke="white" stroke-width="2.03897" stroke-linecap="round" stroke-linejoin="round"/>
<path d="M11.5 14.9999C12.3284 14.9999 13 14.3283 13 13.4999C13 12.6715 12.3284 11.9999 11.5 11.9999C10.6716 11.9999 10 12.6715 10 13.4999C10 14.3283 10.6716 14.9999 11.5 14.9999Z" fill="white"/>
<path d="M20.5 14.9999C21.3284 14.9999 22 14.3283 22 13.4999C22 12.6715 21.3284 11.9999 20.5 11.9999C19.6716 11.9999 19 12.6715 19 13.4999C19 14.3283 19.6716 14.9999 20.5 14.9999Z" fill="white"/>
<path d="M21.2 18.9999C20.6714 19.9106 19.9128 20.6666 19.0003 21.192C18.0877 21.7175 17.0531 21.9941 16 21.9941C14.947 21.9941 13.9124 21.7175 12.9998 21.192C12.0873 20.6666 11.3287 19.9106 10.8 18.9999" stroke="white" stroke-width="2.03897" stroke-linecap="round" stroke-linejoin="round"/>
</svg>
