<?xml version="1.0" encoding="utf-8"?><!-- Uploaded to: SVG Repo, www.svgrepo.com, Generator: SVG Repo Mixer Tools -->
<svg version="1.1" id="Uploaded to svgrepo.com" xmlns="http://www.w3.org/2000/svg" xmlns:xlink="http://www.w3.org/1999/xlink" 
	 width="20px" height="20px" viewBox="0 0 32 32" xml:space="preserve">
<style type="text/css">
	.linesandangles_een{fill: #999999;
;}
</style>
<path class="linesandangles_een" d="M27.41,5.586c-1.021-1.021-2.363-1.532-3.705-1.532S21.021,4.564,20,5.586L8.153,17.431
	c-1.216,1.216-1.216,3.196,0.002,4.414c1.217,1.217,3.195,1.217,4.412,0l8.26-8.26l-1.414-1.414l-8.26,8.26
	c-0.437,0.436-1.146,0.437-1.586-0.002c-0.437-0.437-0.437-1.147,0-1.584L21.414,7C22.678,5.738,24.732,5.737,26,7.004
	c1.263,1.263,1.263,3.319,0,4.582L14.151,23.433c-2.091,2.089-5.491,2.089-7.586-0.006c-2.09-2.09-2.09-5.49,0-7.58L16.828,5.586
	l-1.414-1.414L5.151,14.433c-2.87,2.87-2.87,7.539,0.006,10.414c2.869,2.87,7.539,2.87,10.408,0L27.414,13
	C29.457,10.957,29.457,7.633,27.41,5.586z"/>
</svg>
