<svg xmlns="http://www.w3.org/2000/svg" data-name="Layer 1" width="941.739" height="688"><path d="M848.74 242h-1a41.047 41.047 0 0 1-41-41v-14h-122v-2h124v16a39.047 39.047 0 0 0 38 38.987V185h29a15.017 15.017 0 0 0 15-15V17a15.017 15.017 0 0 0-15-15h-382a15.017 15.017 0 0 0-15 15v111h-2V17a17.02 17.02 0 0 1 17-17h382a17.02 17.02 0 0 1 17 17v153a17.02 17.02 0 0 1-17 17h-27Z" fill="#ccc"/><path d="M812.72 50.51a12.497 12.497 0 0 0-12.48-12.01h-231a12.5 12.5 0 0 0 0 25h231a12.517 12.517 0 0 0 12.5-12.5 4.011 4.011 0 0 0-.02-.49ZM812.72 92.51a12.497 12.497 0 0 0-12.48-12.01h-231a12.5 12.5 0 0 0 0 25h231a12.517 12.517 0 0 0 12.5-12.5 4.011 4.011 0 0 0-.02-.49ZM812.72 134.51a12.497 12.497 0 0 0-12.48-12.01h-231a12.491 12.491 0 0 0-9.601 4.5 13.065 13.065 0 0 0-1.36 2h110.46a15.018 15.018 0 0 1 15 15v3.5h116.5a12.517 12.517 0 0 0 12.5-12.5 4.011 4.011 0 0 0-.02-.49Z" fill="#ccc"/><path d="M24.518 684.705c.544.447 1.088.874 1.645 1.295h137.404q1.535-.632 3.057-1.295a161.801 161.801 0 0 0 40.073-24.95c8.013-6.788 15.383-13.796 20.727-20.364 7.455-9.165 14.32-19.152 17.514-30.533 3.187-11.38 2.235-24.425-4.884-33.862a30.31 30.31 0 0 0-7.999-7.325 29.138 29.138 0 0 0-1.56-.926 39.856 39.856 0 0 0-28.921-3.479c-13.764 3.556-25.202 13.486-33.363 25.131-8.161 11.64-13.46 25.008-18.68 38.228-5.298-23.596-21.342-44.73-43.014-55.476-21.666-10.745-48.584-10.616-69.79 1.023a70.141 70.141 0 0 0-17.845 14.056c-.511.55-1.01 1.114-1.502 1.684C7.036 599.888.565 615.225.034 631.042a67.606 67.606 0 0 0 24.484 53.663Z" fill="#f2f2f2"/><path d="M158.074 686h1.943c.026-.434.059-.861.098-1.295a145.203 145.203 0 0 1 4.249-25.092 154.683 154.683 0 0 1 24.813-52.115 148.065 148.065 0 0 1 42.425-39.16.92.92 0 0 0 .453-.667.969.969 0 0 0-1.431-1.01 1.464 1.464 0 0 0-.13.084 146.678 146.678 0 0 0-25.986 20.156 156.03 156.03 0 0 0-33.493 48.015 151.299 151.299 0 0 0-12.837 49.789c-.04.434-.071.868-.104 1.295ZM17.38 587.912a.12.12 0 0 0 .045.013c1.418.259 2.844.53 4.256.822a192.264 192.264 0 0 1 33.894 10.292 200.016 200.016 0 0 1 31.414 16.193 203.24 203.24 0 0 1 28.142 21.426 199.186 199.186 0 0 1 23.96 25.986 192.68 192.68 0 0 1 14.644 22.06c.246.428.485.862.725 1.296h2.222a50.51 50.51 0 0 0-.72-1.295 194.262 194.262 0 0 0-18.122-26.77 201.333 201.333 0 0 0-24.814-25.746 205.867 205.867 0 0 0-28.745-20.908 201.988 201.988 0 0 0-32.074-15.649 192.434 192.434 0 0 0-33.325-9.404l-.945-.175c-1.211-.22-1.73 1.606-.557 1.859Z" fill="#fff"/><path d="M56.018 655.525a128.393 128.393 0 0 1 40.705.918 131.058 131.058 0 0 1 38.327 13.4 126.431 126.431 0 0 1 19.126 12.636c.977.78-.406 2.147-1.374 1.374a125.53 125.53 0 0 0-34.838-19.584 129.312 129.312 0 0 0-38.904-7.892 123.76 123.76 0 0 0-22.525 1.022 1.006 1.006 0 0 1-1.195-.679.978.978 0 0 1 .678-1.195Z" fill="#fff"/><path d="M667.74 129h-382a17.024 17.024 0 0 0-17 17v153a17.024 17.024 0 0 0 17 17h27v55h1a41.043 41.043 0 0 0 41-41v-14h313a17.024 17.024 0 0 0 17-17V146a17.024 17.024 0 0 0-17-17Zm15 170a15.018 15.018 0 0 1-15 15h-315v16a39.057 39.057 0 0 1-38 38.99V314h-29a15.018 15.018 0 0 1-15-15V146a15.018 15.018 0 0 1 15-15h382a15.018 15.018 0 0 1 15 15Z" fill="#3f3d56"/><path d="M592.24 167.5h-231a12.497 12.497 0 0 0-12.48 12.01 4.01 4.01 0 0 0-.02.49 12.518 12.518 0 0 0 12.5 12.5h231a12.5 12.5 0 0 0 0-25ZM592.24 209.5h-231a12.497 12.497 0 0 0-12.48 12.01 4.01 4.01 0 0 0-.02.49 12.518 12.518 0 0 0 12.5 12.5h231a12.5 12.5 0 1 0 0-25ZM592.24 251.5h-231a12.497 12.497 0 0 0-12.48 12.01 4.01 4.01 0 0 0-.02.49 12.518 12.518 0 0 0 12.5 12.5h231a12.5 12.5 0 1 0 0-25Z" fill="#837aea"/><path d="M224.726 472.72a10.706 10.706 0 0 1-1.347-.085 11.003 11.003 0 0 1-9.36-13.49 10.507 10.507 0 0 1 .31-1.034l-33.364-42.714a11.149 11.149 0 0 1-.26-13.309l11.687-16.232 15.275 11.785-6.136 10.543 24.302 42.598a10.588 10.588 0 0 1 1.452.237 11.003 11.003 0 0 1-2.56 21.7ZM282.467 675.118l12.26-.001 5.832-47.288-18.094.001.002 47.288z" fill="#a0616a"/><path d="m318.37 686.5-38.53.002v-14.887l23.643-.001a14.887 14.887 0 0 1 14.888 14.886Z" fill="#2f2e41"/><path fill="#a0616a" d="m181.467 675.118 12.26-.001 5.832-47.288-18.094.001.002 47.288z"/><path d="m217.37 686.5-38.53.002v-14.887l23.643-.001a14.887 14.887 0 0 1 14.888 14.886Z" fill="#2f2e41"/><path d="m188.992 388.16 27.524 10.458 6.72-18.666a11.168 11.168 0 0 0-5.002-13.5 11.168 11.168 0 0 0-14.262 2.785Z" fill="#837aea"/><path d="M280.287 636.945a4.953 4.953 0 0 1-4.792-3.726c-13.726-52.511-27.662-78.831-42.606-109.266a3.974 3.974 0 0 0-7.495 1.156L206.87 632.158a4.982 4.982 0 0 1-5.035 4.218l-27.502-.67a4.933 4.933 0 0 1-3.537-1.601 4.484 4.484 0 0 1-1.304-3.647c12.456-82.145 22.263-156.501 41.123-179.185a6.684 6.684 0 0 1 1.775-1.207l-.572-.087c-.164-.026-.6-.093-.605-.53l-.005-.424.43-.081a5.57 5.57 0 0 1 2.021.304l43.045 6.625a4.972 4.972 0 0 1 4.214 5.023c2.34 10.948 5.926 27.472 6.247 28.286 22.966 43.661 31.877 78.043 41.14 136.752a4.986 4.986 0 0 1-3.812 5.62l-23.084 5.264a5.03 5.03 0 0 1-1.122.127Z" fill="#2f2e41"/><path d="M256.132 463.031a4.95 4.95 0 0 1-1.147-.135l-42.379-10.08a4.884 4.884 0 0 1-3.115-2.31 5.122 5.122 0 0 1-.484-3.983c4.57-15.843-1.423-35.483-8.579-54.346a26.005 26.005 0 0 1 14.22-27.589l.115-.055 22.25 1.123a24.992 24.992 0 0 1 16.566 14.18c8.576 20.07 11.031 45.825 7.506 78.734a4.986 4.986 0 0 1-4.953 4.461Z" fill="#837aea"/><path d="M261.833 417.217a10.863 10.863 0 0 1-6.314-2.007l-16.414-11.7 11.711-15.331 10.572 6.086 42.481-24.507a10.571 10.571 0 0 1 .23-1.452 11 11 0 1 1 8.19 13.225 10.516 10.516 0 0 1-1.036-.305l-42.674 33.666a10.886 10.886 0 0 1-6.746 2.325Z" fill="#a0616a"/><path d="m233.898 408.285 24.349-16.557-11.443-16.207a11.168 11.168 0 0 0-13.929-3.64 11.168 11.168 0 0 0-5.894 13.283Z" fill="#837aea"/><circle cx="222.188" cy="331.661" r="24.561" fill="#a0616a"/><path d="M224.438 356.79c-3.686-.016-6.53-3.897-6.365-7.58s2.64-6.922 5.62-9.092 6.474-3.492 9.797-5.088 6.618-3.585 8.67-6.648a14.716 14.716 0 0 0 1.023-13.504 21.669 21.669 0 0 0-9.333-10.225 28.378 28.378 0 0 0-37.608 8.25l-4.208 11.459c-4.287 5.156-4.968 12.813-2.332 18.98s8.248 10.805 14.581 13.01a35.794 35.794 0 0 0 19.841.596" fill="#2f2e41"/><path d="M197.9 320.017a18.85 18.85 0 0 0-31.292-.503c-2.955 4.25-4.028 9.49-6.06 14.251a37.768 37.768 0 0 1-18.796 19.303c7.377 1.297 14.727-2.456 20.625-7.073s11.085-10.254 17.69-13.786a33.29 33.29 0 0 1 16.918-3.886" fill="#2f2e41"/><path d="M404.633 688h-381a1 1 0 1 1 0-2h381a1 1 0 0 1 0 2Z" fill="#3f3d56"/><circle cx="882.739" cy="307" r="59" fill="#e6e6e6"/><path d="M888.366 349.052c-2.403-.067-5.394-.15-7.696-1.833a5.911 5.911 0 0 1-2.326-4.413 3.976 3.976 0 0 1 1.352-3.265 5.13 5.13 0 0 1 4.854-.699l-1.962-14.336 1.44-.197 2.306 16.853-1.202-.551c-1.395-.64-3.308-.965-4.498.04a2.554 2.554 0 0 0-.837 2.103 4.467 4.467 0 0 0 1.73 3.291c1.792 1.31 4.176 1.479 6.88 1.555ZM867.638 325.742h7.828v1.454h-7.828zM892.348 325.742h7.828v1.454h-7.828zM854.037 305.67c-6.304-.718-11.186-6.758-11.723-12.887-.638-7.29 3.608-14.215 9.434-18.307 6.092-4.278 13.681-6.065 21.025-6.458a57.784 57.784 0 0 1 39.498 13.018c5.503 4.57 10.642 10.392 12.59 17.424 1.691 6.107.314 13.025-4.597 17.302a11.61 11.61 0 0 1-8.91 2.744c-3.811-.396-7.328-2.4-10.371-4.613-5.921-4.305-10.782-10.302-17.995-12.552-5.29-1.65-12.153-.197-15.385 4.586a8.706 8.706 0 0 0-1.39 3.647 1.129 1.129 0 0 0 .761 1.341 1.097 1.097 0 0 0 1.341-.761c.849-6.025 8.256-8.273 13.454-6.897 7.58 2.006 12.667 8.77 18.885 13.066a22.95 22.95 0 0 0 10.998 4.39 13.656 13.656 0 0 0 9.596-2.948c5.312-4.195 7.344-11.41 6.169-17.905-1.36-7.523-6.423-13.97-11.979-18.961a59.92 59.92 0 0 0-40.948-15.127c-7.685.176-15.703 1.763-22.323 5.824-6.421 3.94-11.384 10.531-12.033 18.192-.571 6.744 3.047 13.797 9.258 16.752a14.498 14.498 0 0 0 4.645 1.311c1.392.159 1.38-2.023 0-2.18Z" fill="#3f3d56"/></svg>