<svg xmlns="http://www.w3.org/2000/svg" data-name="Layer 1" width="581.139" height="573.951"><path d="M225.463 340.71C132.823 318.7 75.362 225.427 97.371 132.788S212.65-17.312 305.29 4.696a173.062 173.062 0 0 1 120.42 103.84l-1.856.745A171.058 171.058 0 0 0 304.83 6.642C213.263-15.11 121.07 41.685 99.317 133.251S134.36 317.01 225.925 338.763a169.588 169.588 0 0 0 147.284-33.742l1.262 1.55a171.569 171.569 0 0 1-149.008 34.138Z" fill="#e6e6e6"/><path d="M537.365 242.745h-138.41c-7.503 0-13.608-8.482-13.608-18.907V81.636c0-10.425 6.105-18.907 13.609-18.907H567.53c7.504 0 13.61 8.482 13.61 18.907V181.93c0 33.534-19.638 60.815-43.775 60.815Z" fill="#f2f2f2"/><path fill="#a0616a" d="M286.667 551.826h11.038l10.727-83.019h-25l3.235 83.019z"/><path d="m283.065 544.267 17.634-1.053v7.555l16.765 11.579a4.72 4.72 0 0 1-2.681 8.603h-20.994l-3.619-7.474-1.413 7.474h-7.915Z" fill="#2f2e41"/><path fill="#a0616a" d="m122.771 525.497 10.07 4.519 43.777-71.351-22.808-10.235-31.039 77.067z"/><path d="m122.58 517.125 16.519 6.26-3.093 6.892 10.554 17.428a4.72 4.72 0 0 1-5.968 6.75l-19.154-8.595-.242-8.3-4.348 6.24-7.222-3.24ZM202.187 287.667l51.056-6.922s65.636 151.799 62.888 229.425l-41.651 5.138s.317-31.83 2.627-34.266 5.161.662 2.31-6.302-5.137-8.724-1.713-12.12-37.082-62.788-37.082-62.788S176.886 480 173.465 482.28s-7.307 2.783-5.079 8.518-1.764 16.722-1.764 16.722-25.118-3.81-35.38-28.893c0 0 41.495-75.592 45.261-76.847s5.477 5.017 3.767-1.254-5.131-3.99-1.71-6.271a30.163 30.163 0 0 1 7.41-3.42l13.273-35.09c-10.232-23.468-9.577-46.183 2.944-68.077Z" fill="#2f2e41"/><path fill="#ffb6b6" d="m201.697 247.499 1.874 17.381-1.103 22.793 50.485-5.998 4.744-34.176-6.044.059-49.956-.059z"/><path d="m244.64 191.357-19-15-9.974-.58-14.8 9.48-3.623 18.488-8.57 20.818 12.57 56.182s1.179 4.031-1.91 4.516-2.72 6.426-2.72 6.426.63 5.15-2.37 5.604-11 .454-4 9.454 63.694-25.11 63.694-25.11l6.713-42.124s15.595-20.946-1.2-32.942Z" fill="#837aea"/><path d="M161.696 318.915a9.157 9.157 0 0 1 2.763-13.767l23.9-80.205 14.943 7.524-26.026 76.875a9.207 9.207 0 0 1-15.58 9.573Z" fill="#a0616a"/><path d="M204.299 184.515s-4.272-2.27-7.194 7.554c-2.34 7.865-21.32 54.713-21.563 66.103a7.194 7.194 0 0 0-5.696 6.734l23.469 3.145c4.1-3.46 5.177-8.13 3.59-9.517L202 244.617l21.258-44.28-15.843-14.235Z" fill="#837aea"/><path d="M329.7 292.552a9.157 9.157 0 0 0-8.445-11.219L266.43 218.72l-11.63 13.877 56.711 58.06a9.207 9.207 0 0 0 18.188 1.895Z" fill="#a0616a"/><path d="M233.166 189.792s2.87-3.894 9.753 3.7c5.51 6.08 42.884 40.113 48.028 50.278a7.194 7.194 0 0 1 8.048 3.608l-19.8 12.985c-5.194-1.346-8.185-5.093-7.354-7.029L261.23 242.99l-38.317-30.732 8.13-19.687Z" fill="#837aea"/><path d="M242.893 177.105c2.2-3.16-16.81-10.63-20.49-9.21-7.55 2.93-16.47 9.19-23.41 10.08a30.133 30.133 0 0 0-.73-8.2c-.75 2.73-1.49 5.47-2.24 8.21-6.55-.93-17.46-11.91-14.78-37.24 1.11-10.43 8.76-21.52 33.76-25.63 23.08-3.78 28.71 13.35 30.87 24.54 4.92 25.41 2.49 37.06-2.98 37.45Z" fill="#2f2e41"/><circle cx="221.407" cy="147.251" r="20.681" fill="#a0616a"/><path d="m249.243 139.872-9.907 1.513c-4.369-2.736-6.033-6.796-6.24-11.569l.996 12.37-4.735.725c-3.09-2.062-4.471-4.295-3.64-6.75l.58 7.217c-12.62 4.547-24.853 7.9-35.182 5.377a26.822 26.822 0 0 1 22.463-30.567l5.099-.779a26.822 26.822 0 0 1 30.566 22.463Z" fill="#2f2e41"/><path d="M67.469 551.848a2.807 2.807 0 0 1-2.035-4.865l.193-.765-.077-.184a7.54 7.54 0 0 0-13.907.052c-2.274 5.478-5.17 10.965-5.883 16.758a22.304 22.304 0 0 0 .392 7.67 89.42 89.42 0 0 1-8.135-37.139 86.307 86.307 0 0 1 .536-9.628q.443-3.931 1.23-7.806a90.455 90.455 0 0 1 17.939-38.338 24.073 24.073 0 0 0 10.011-10.387 18.363 18.363 0 0 0 1.67-5.018c-.487.064-1.837-7.36-1.47-7.814-.68-1.031-1.895-1.544-2.637-2.55-3.69-5.001-8.772-4.128-11.426 2.67-5.668 2.86-5.723 7.605-2.245 12.169 2.213 2.903 2.517 6.831 4.459 9.94-.2.255-.408.503-.608.759a91.04 91.04 0 0 0-9.502 15.053 37.846 37.846 0 0 0-2.26-17.578c-2.162-5.218-6.216-9.612-9.785-14.122-4.288-5.417-13.08-3.053-13.836 3.815l-.022.199q.796.449 1.557.952a3.808 3.808 0 0 1-1.535 6.93l-.078.012a37.89 37.89 0 0 0 1 5.666c-4.58 17.71 5.307 24.16 19.424 24.45.311.16.615.32.926.471a92.924 92.924 0 0 0-5.001 23.54 88.135 88.135 0 0 0 .063 14.23l-.024-.168a23.29 23.29 0 0 0-7.95-13.447c-6.118-5.026-14.762-6.877-21.362-10.917a4.37 4.37 0 0 0-6.695 4.252l.027.177a25.578 25.578 0 0 1 2.869 1.382q.795.449 1.557.952a3.808 3.808 0 0 1-1.535 6.93l-.078.012-.16.024a37.923 37.923 0 0 0 6.976 10.923c2.863 15.46 15.162 16.927 28.317 12.425h.008a92.897 92.897 0 0 0 6.24 18.218H66.91c.08-.248.152-.504.224-.751a25.329 25.329 0 0 1-6.168-.368c1.654-2.03 3.308-4.075 4.962-6.105a1.384 1.384 0 0 0 .103-.12c.84-1.038 1.686-2.069 2.525-3.108a37.102 37.102 0 0 0-1.086-9.452Z" fill="#f2f2f2"/><path d="m1.19 573.644 576.75.307a1.19 1.19 0 1 0 0-2.381l-576.75-.307a1.19 1.19 0 0 0 0 2.381Z" fill="#cacaca"/><path d="M517.033 296.495H330.098a13.625 13.625 0 0 1-13.61-13.61V109.164a13.625 13.625 0 0 1 13.61-13.61h186.935a13.625 13.625 0 0 1 13.61 13.61v173.723a13.625 13.625 0 0 1-13.61 13.609Z" fill="#e6e6e6"/><path d="M477.689 287.315h-138.41a13.625 13.625 0 0 1-13.608-13.609V118.35a13.625 13.625 0 0 1 13.609-13.61h168.574a13.625 13.625 0 0 1 13.609 13.61V243.54a43.823 43.823 0 0 1-43.774 43.774Z" fill="#fff"/><path d="M404.13 156.577a20.005 20.005 0 1 1-20.01-20 19.983 19.983 0 0 1 20.01 20Z" fill="#837aea"/><rect x="364.194" y="192.666" width="58.745" height="12.562" rx="5.07" fill="#3f3d56"/><rect x="364.359" y="217.79" width="118.415" height="12.562" rx="5.07" fill="#3f3d56"/><rect x="364.359" y="242.914" width="118.415" height="12.562" rx="5.07" fill="#3f3d56"/><circle cx="384.567" cy="152.476" r="7" fill="#fff"/><path d="M392.07 161.977h-15a3.504 3.504 0 0 0-3.5 3.5 52.96 52.96 0 0 0 1.4 8.89 19.986 19.986 0 0 0 19.34-.57 52.457 52.457 0 0 0 1.26-8.32 3.504 3.504 0 0 0-3.5-3.5Z" fill="#fff"/><path d="M498.91 138.55a13.218 13.218 0 1 1 13.219-13.218 13.218 13.218 0 0 1-13.218 13.218Z" fill="#e6e6e6"/><path d="m503.52 128.098-2.765-2.766 2.766-2.766a1.304 1.304 0 0 0-1.844-1.844l-2.766 2.766-2.766-2.766a1.304 1.304 0 0 0-1.844 1.844l2.766 2.766-2.766 2.766a1.304 1.304 0 0 0 1.844 1.844l2.766-2.766 2.766 2.766a1.304 1.304 0 1 0 1.844-1.844Z" fill="#fff"/></svg>