<svg xmlns="http://www.w3.org/2000/svg">
  <symbol id="arrow-right" width="6" height="10" viewBox="0 0 6 10" fill="none" xmlns="http://www.w3.org/2000/svg">
    <path d="M1 9L5 5L1 1" stroke="#999999"/>
  </symbol>
  <symbol id="arrow-left" width="6" height="10" viewBox="0 0 6 10" fill="none" xmlns="http://www.w3.org/2000/svg">
    <path d="M5 0.999876L1 4.99988L5 8.99988" stroke="#999999"/>
  </symbol>
  <symbol id="search-icon" width="13" height="13" viewBox="0 0 13 13" fill="none" xmlns="http://www.w3.org/2000/svg">
    <path fill-rule="evenodd" clip-rule="evenodd" d="M7.89199 7.69329C6.51932 9.06596 4.29379 9.06596 
    2.92112 7.69329C1.54845 6.32062 1.54845 4.09508 2.92112 2.72241C4.29379 1.34974 6.51932 1.34974
    7.89199 2.72241C9.26466 4.09508 9.26466 6.32062 7.89199 7.69329ZM8.31415 9.01903C6.43504 10.4564 
    3.73596 10.3157 2.01732 8.59709C0.145496 6.72527 0.145496 3.69044 2.01732 1.81862C3.88914 -0.0532052 
    6.92397 -0.0532052 8.79579 1.81862C10.5144 3.53718 10.6551 6.2361 9.21792 8.1152L12.637 11.5343L11.7332 
    12.4381L8.31415 9.01903Z" fill="#999999"/>
  </symbol>
  <symbol id="more-btn" width="3" height="16" viewBox="0 0 3 16" fill="none" xmlns="http://www.w3.org/2000/svg">
    <circle cx="1.5" cy="2" r="1.5" fill="#1E1E1E"/>
    <circle cx="1.5" cy="8" r="1.5" fill="#1E1E1E"/>
    <circle cx="1.5" cy="14" r="1.5" fill="#1E1E1E"/>
  </symbol>
  <symbol id="source-image" width="18" height="18" viewBox="0 0 18 18" fill="none" xmlns="http://www.w3.org/2000/svg">
    <path fill-rule="evenodd" clip-rule="evenodd" d="M4 1.5H14C15.3807 1.5 16.5 2.61929 16.5 
    4V11.382L12.1556 10.2235C11.147 9.95452 10.1075 9.81831 9.06365 9.81831H8.93597C7.89208 
    9.81831 6.85266 9.95452 5.84402 10.2235L1.5 11.3819V4C1.5 2.61929 2.61929 1.5 4 1.5ZM0 
    4C0 1.79086 1.79086 0 4 0H14C16.2091 0 18 1.79086 18 4V14C18 16.2091 16.2091 18 14 18H4C1.79086 
    18 0 16.2091 0 14V4ZM6.54527 4.90913C6.54527 5.81287 5.81264 6.5455 4.9089 6.5455C4.00516 6.5455 
    3.27254 5.81287 3.27254 4.90913C3.27254 4.00539 4.00516 3.27277 4.9089 3.27277C5.81264 3.27277 
    6.54527 4.00539 6.54527 4.90913Z" fill="#0078D2"/>
  </symbol>
  <symbol id="source-file" width="18" height="18" viewBox="0 0 18 18" fill="none" xmlns="http://www.w3.org/2000/svg">
    <path fill-rule="evenodd" clip-rule="evenodd" d="M4 1.5H14C15.3807 1.5 16.5 2.61929 16.5 
    4V9.81842H13.8184C11.6093 9.81842 9.81842 11.6093 9.81842 13.8184V16.5H4C2.61929 16.5 1.5 
    15.3807 1.5 14V4C1.5 2.61929 2.61929 1.5 4 1.5ZM9.81842 18H4C1.79086 18 0 16.2091 0 14V4C0 
    1.79086 1.79086 0 4 0H14C16.2091 0 18 1.79086 18 4V9.81842H18.0002V14.0002C18.0002 16.2094 
    16.2094 18.0002 14.0002 18.0002H9.81842V18Z" fill="#0078D2"/>
  </symbol>
  <symbol id="source-location" width="18" height="18" viewBox="0 0 18 18" fill="none" xmlns="http://www.w3.org/2000/svg">
    <path fill-rule="evenodd" clip-rule="evenodd" d="M16.5 9C16.5 13.1421 13.1421 16.5 9 16.5C4.85786 
    16.5 1.5 13.1421 1.5 9C1.5 4.85786 4.85786 1.5 9 1.5C13.1421 1.5 16.5 4.85786 16.5 9ZM18 9C18 
    13.9706 13.9706 18 9 18C4.02944 18 0 13.9706 0 9C0 4.02944 4.02944 0 9 0C13.9706 0 18 4.02944 
    18 9ZM9.00008 11.4545C10.3557 11.4545 11.4546 10.3556 11.4546 8.99997C11.4546 7.64436 10.3557 
    6.54542 9.00008 6.54542C7.64448 6.54542 6.54554 7.64436 6.54554 8.99997C6.54554 10.3556 7.64448 
    11.4545 9.00008 11.4545Z" fill="#0078D2"/>
  </symbol>
  <symbol id="source-btn" width="32" height="32" viewBox="0 0 32 32" fill="none" xmlns="http://www.w3.org/2000/svg">
    <path fill-rule="evenodd" clip-rule="evenodd" d="M7.18661 13.5L14.7628 
    5.92389L15.7056 6.8667L8.12942 14.4428L7.18661 13.5Z" fill="#999999"/>
    <path fill-rule="evenodd" clip-rule="evenodd" d="M9.70065 16.0141L17.2768 
    8.43793L18.2196 9.38074L10.6435 16.9569L9.70065 16.0141Z" fill="#999999"/>
    <path fill-rule="evenodd" clip-rule="evenodd" d="M15.0433 21.3567L22.6194 
    13.7806L23.5623 14.7234L15.9861 22.2995L15.0433 21.3567Z" fill="#999999"/>
    <path fill-rule="evenodd" clip-rule="evenodd" d="M17.5573 23.8708L25.1335 
    16.2946L26.0763 17.2374L18.5001 24.8136L17.5573 23.8708Z" fill="#999999"/>
    <path fill-rule="evenodd" clip-rule="evenodd" d="M17.5574 23.8709C14.9423 
    26.486 10.7118 26.4954 8.10829 23.8919C5.50479 21.2884 5.51421 17.0579 8.12933 
    14.4428L7.18652 13.5C4.04838 16.6381 4.03708 21.7148 7.16127 24.839C10.2855 27.9632 
    15.3621 27.9518 18.5002 24.8137L17.5574 23.8709Z" fill="#999999"/>
    <path fill-rule="evenodd" clip-rule="evenodd" d="M22.6195 13.7806L23.5623 
    14.7234C26.003 12.2826 26.0118 8.3341 23.5819 5.90417C21.152 3.47424 17.2035 
    3.48303 14.7627 5.92381L15.7055 6.86662C17.6233 4.94887 20.7257 4.94196 22.6349 
    6.85119C24.5441 8.76042 24.5372 11.8628 22.6195 13.7806Z" fill="#999999"/>
    <path fill-rule="evenodd" clip-rule="evenodd" d="M9.70093 16.0144C7.95752 
    17.7578 7.95123 20.5782 9.6869 22.3138C11.4226 24.0495 14.2429 24.0432 15.9863 
    22.2998L15.0435 21.357C13.8231 22.5774 11.8489 22.5818 10.6339 21.3668C9.41895 
    20.1518 9.42335 18.1776 10.6437 16.9572L9.70093 16.0144Z" fill="#999999"/>
  </symbol>     
  <svg id="send-btn" width="13" height="12" viewBox="0 0 13 12" fill="none" xmlns="http://www.w3.org/2000/svg">
    <rect y="5.19995" width="11" height="1.6" fill="white"/>
    <path d="M7 1L11 6L7 11" stroke="white" stroke-width="1.6"/>
  </svg>       
</svg>
