<?xml version="1.0" standalone="no"?>
<!DOCTYPE svg PUBLIC "-//W3C//DTD SVG 20010904//EN"
 "http://www.w3.org/TR/2001/REC-SVG-20010904/DTD/svg10.dtd">
<svg version="1.0" xmlns="http://www.w3.org/2000/svg" width="512.000000pt" height="512.000000pt" viewBox="0 0 512.000000 512.000000" preserveAspectRatio="xMidYMid meet">

<g transform="translate(0.000000,512.000000) scale(0.100000,-0.100000)" fill="#f0f0f0" stroke="none">
<path d="M681 4784 c-169 -45 -301 -180 -346 -351 -23 -86 -23 -3020 0 -3106
46 -178 193 -320 367 -356 37 -8 364 -11 1065 -9 1004 3 1012 3 1039 24 53 39
69 71 69 134 0 63 -16 95 -69 134 -27 21 -37 21 -1046 26 -1009 5 -1019 5
-1046 26 -15 11 -37 33 -48 48 -21 27 -21 28 -21 1526 0 1498 0 1499 21 1526
11 15 33 37 48 48 27 21 28 21 1526 21 1498 0 1499 0 1526 -21 15 -11 37 -33
48 -48 21 -27 21 -37 26 -1046 5 -1009 5 -1019 26 -1046 39 -53 71 -69 134
-69 63 0 95 16 134 69 21 27 21 35 24 1039 2 701 -1 1028 -9 1065 -36 174
-178 321 -356 367 -85 22 -3030 21 -3112 -1z"></path>
<path d="M1666 4150 c-63 -16 -153 -70 -197 -117 -22 -24 -55 -74 -72 -111
-29 -61 -32 -76 -32 -163 0 -90 2 -99 37 -171 45 -91 103 -147 196 -191 61
-29 76 -32 162 -32 86 0 101 3 162 32 93 44 151 100 196 191 35 72 37 81 37
172 0 91 -2 100 -37 172 -68 136 -188 217 -336 224 -42 2 -94 -1 -116 -6z"></path>
<path d="M2660 3349 c-14 -5 -222 -206 -462 -447 l-438 -437 -202 202 c-172
171 -209 202 -240 208 -80 15 -104 2 -236 -128 l-122 -121 0 -513 0 -513 1280
0 1280 0 0 513 0 512 -357 357 c-197 196 -371 362 -386 368 -35 12 -83 12
-117 -1z"></path>
<path d="M3935 1906 c-37 -17 -70 -52 -84 -89 -7 -17 -11 -127 -11 -282 l0
-254 -269 -3 c-254 -3 -271 -4 -297 -24 -53 -39 -69 -71 -69 -134 0 -63 16
-95 69 -134 26 -20 43 -21 296 -24 l269 -3 3 -269 c3 -253 4 -270 24 -296 39
-53 71 -69 134 -69 63 0 95 16 134 69 20 26 21 43 24 296 l3 269 269 3 c253 3
270 4 296 24 53 39 69 71 69 134 0 63 -16 95 -69 134 -26 20 -43 21 -296 24
l-269 3 -3 269 c-3 253 -4 270 -24 296 -11 15 -32 37 -46 47 -34 25 -113 32
-153 13z"></path>
</g>
</svg>
