<?xml version="1.0" standalone="no"?>
<!DOCTYPE svg PUBLIC "-//W3C//DTD SVG 20010904//EN"
 "http://www.w3.org/TR/2001/REC-SVG-20010904/DTD/svg10.dtd">
<svg version="1.0" xmlns="http://www.w3.org/2000/svg" width="512.000000pt" height="512.000000pt" viewBox="0 0 512.000000 512.000000" preserveAspectRatio="xMidYMid meet">

<g transform="translate(0.000000,512.000000) scale(0.100000,-0.100000)" fill="#000000" stroke="none">
<path d="M2310 4550 c-989 -136 -1711 -920 -1756 -1910 -28 -604 247 -1223
721 -1618 622 -520 1474 -617 2195 -251 972 493 1373 1678 900 2657 -277 573
-778 963 -1411 1097 -109 24 -152 27 -354 30 -126 2 -259 0 -295 -5z m19
-1295 c40 -20 79 -70 87 -110 13 -71 0 -91 -164 -257 l-156 -158 667 0 c730 0
709 2 760 -59 58 -69 58 -153 0 -222 -51 -61 -29 -59 -764 -59 l-672 0 147
-150 c86 -87 153 -165 162 -187 39 -91 -40 -203 -144 -203 -24 0 -55 6 -70 14
-15 8 -158 149 -319 314 -321 331 -328 341 -304 425 11 35 58 87 295 326 154
156 299 296 320 312 45 33 108 39 155 14z"></path>
</g>
</svg>
