<svg version="1.0" xmlns="http://www.w3.org/2000/svg" width="512.000000pt" height="512.000000pt" viewBox="0 0 512.000000 512.000000" preserveAspectRatio="xMidYMid meet">

<g transform="translate(0.000000,512.000000) scale(0.100000,-0.100000)" fill="#282828" stroke="none">
<path d="M1158 4900 c-229 -28 -450 -134 -620 -298 -177 -171 -289 -402 -318
-652 -14 -119 -13 -1803 1 -1927 28 -254 150 -501 331 -669 123 -113 301 -212
450 -249 l67 -17 3 -368 3 -368 30 -44 c60 -84 179 -117 264 -73 19 10 311
201 648 426 l613 409 661 0 c625 0 666 1 761 20 456 93 795 466 847 933 14
124 15 1808 1 1927 -40 346 -233 640 -535 817 -75 44 -196 92 -293 116 -87 21
-94 21 -1467 23 -759 1 -1410 -2 -1447 -6z m2777 -1297 c22 -11 50 -32 62 -45
75 -80 68 -224 -13 -300 -66 -62 23 -58 -1424 -58 -1171 0 -1325 2 -1358 16
-79 33 -132 110 -132 194 0 105 56 179 160 211 14 4 619 7 1345 6 l1320 -2 40
-22z m-437 -848 c152 -64 172 -273 34 -370 l-44 -30 -906 -3 c-626 -2 -918 0
-944 8 -147 42 -191 250 -76 357 58 54 20 52 996 53 793 0 907 -2 940 -15z"></path>
</g>
</svg>
