<?xml version="1.0" standalone="no"?>
<!DOCTYPE svg PUBLIC "-//W3C//DTD SVG 20010904//EN"
 "http://www.w3.org/TR/2001/REC-SVG-20010904/DTD/svg10.dtd">
<svg version="1.0" xmlns="http://www.w3.org/2000/svg" width="600.000000pt" height="478.000000pt" viewBox="0 0 600.000000 478.000000" preserveAspectRatio="xMidYMid meet">

<g transform="translate(0.000000,478.000000) scale(0.100000,-0.100000)" fill="#000000" stroke="none">
<path d="M2750 4594 c-62 -20 -85 -34 -131 -80 -31 -31 -66 -74 -79 -97 -102
-188 -104 -193 -89 -288 6 -41 21 -94 32 -118 29 -63 29 -161 0 -223 -13 -26
-23 -51 -23 -55 0 -5 -14 -26 -30 -47 -37 -48 -37 -63 -5 -121 14 -25 24 -49
21 -54 -3 -5 -32 -19 -63 -32 -32 -12 -73 -31 -91 -41 -18 -10 -37 -18 -43
-18 -18 0 -156 -69 -169 -85 -7 -8 -17 -15 -22 -15 -20 0 -89 -75 -99 -109
-16 -55 -26 -89 -48 -171 -11 -41 -29 -105 -40 -142 -11 -37 -22 -94 -26 -125
-3 -32 -10 -74 -15 -93 -24 -98 -50 -324 -49 -430 2 -108 4 -119 36 -188 34
-72 37 -115 13 -147 -4 -5 -13 -28 -20 -50 -7 -22 -18 -49 -25 -60 -6 -11 -15
-46 -18 -78 -3 -32 -11 -65 -18 -74 -22 -25 -59 -144 -59 -187 0 -22 -4 -53
-9 -70 -5 -17 -17 -67 -27 -111 -9 -44 -22 -89 -29 -100 -7 -11 -15 -54 -18
-95 -4 -47 -14 -91 -27 -119 -12 -24 -26 -73 -31 -109 -8 -55 -15 -71 -53
-114 -38 -44 -45 -59 -51 -109 -6 -48 -4 -63 12 -86 11 -15 25 -42 32 -59 6
-17 41 -59 77 -95 l65 -64 72 3 c40 2 106 4 147 5 l75 2 -3 -50 c-3 -58 -11
-81 -63 -192 -22 -44 -39 -86 -39 -92 0 -8 198 -11 699 -11 l699 0 6 128 c15
318 17 332 36 332 22 0 35 -16 44 -55 4 -16 14 -43 21 -60 7 -16 16 -46 18
-65 3 -19 10 -53 16 -75 26 -103 33 -133 38 -168 l5 -37 320 0 320 0 -4 253
c-2 196 -6 258 -17 277 -27 46 -33 112 -41 440 -11 420 -28 565 -87 740 -19
58 -38 110 -42 115 -10 14 -29 83 -35 130 -3 22 -11 60 -17 85 -7 25 -14 104
-16 177 -3 108 -1 136 12 156 9 15 13 32 8 43 -6 17 -5 17 10 6 11 -10 14 -23
10 -43 -3 -15 -2 -40 1 -54 8 -32 61 -65 104 -65 29 0 32 -3 32 -29 0 -21 10
-37 40 -62 22 -19 88 -80 147 -137 60 -56 126 -112 148 -123 22 -12 66 -45 97
-75 31 -30 64 -54 74 -54 18 0 78 34 109 63 20 18 29 21 96 32 36 5 75 36 62
48 -3 4 -17 7 -29 7 -13 0 -26 5 -29 11 -9 14 -66 1 -80 -18 -10 -13 -13 -13
-24 0 -10 13 -16 13 -39 1 -55 -28 -137 -9 -149 35 -3 13 -2 40 3 59 l9 36 73
1 c40 1 75 5 79 8 3 4 -1 7 -10 7 -9 0 -17 4 -17 10 0 14 35 30 64 30 32 0 44
19 23 35 -10 7 -17 18 -17 25 0 7 -7 10 -16 6 -8 -3 -12 -2 -9 4 9 15 -19 12
-41 -5 -10 -8 -26 -15 -36 -15 -9 0 -19 -6 -22 -12 -5 -10 -7 -10 -12 1 -5 10
-10 6 -20 -15 -10 -23 -13 -25 -13 -9 -1 31 41 97 77 121 l32 22 -34 20 c-24
14 -43 39 -61 76 -15 31 -30 56 -33 56 -4 0 -16 17 -26 38 -44 91 -56 109 -99
137 -25 17 -49 43 -56 61 -6 17 -31 50 -56 73 -25 23 -45 51 -45 61 0 29 -26
122 -44 155 -44 84 -117 250 -145 332 -41 119 -81 195 -111 210 -80 38 -166
68 -225 77 -22 3 -60 10 -85 15 -25 6 -67 15 -95 20 -97 21 -95 19 -95 50 0
16 6 31 13 33 14 5 24 123 19 231 -3 64 -4 67 -28 67 -14 0 -38 -10 -53 -21
-30 -22 -57 -18 -47 6 3 8 -1 18 -8 24 -9 7 -17 3 -30 -14 -11 -14 -23 -25
-29 -25 -16 0 0 65 27 108 14 22 28 52 32 67 l6 26 25 -23 c36 -34 44 -11 40
106 -3 95 -5 100 -33 125 -16 15 -36 46 -44 70 -17 53 -92 139 -128 148 -15 3
-38 13 -51 22 -16 10 -53 16 -115 18 -75 2 -104 -2 -166 -23z m363 -210 c41
-6 45 -9 36 -25 -5 -11 -17 -19 -27 -19 -9 0 -30 -9 -47 -20 -16 -11 -38 -20
-47 -20 -23 0 -23 -29 -1 -46 10 -7 14 -16 10 -20 -10 -10 -43 11 -39 25 1 6
-7 11 -19 11 -18 0 -20 5 -17 47 5 68 37 82 151 67z m27 -160 c0 -8 -5 -14
-12 -14 -6 0 -19 -7 -28 -15 -18 -16 -56 -10 -64 10 -3 9 0 12 10 8 8 -3 20 1
27 10 12 16 46 27 60 20 4 -2 7 -11 7 -19z m-42 -225 c4 -23 -37 -32 -65 -13
-36 23 -28 35 19 32 30 -2 44 -8 46 -19z m137 -101 c33 -15 32 -22 -7 -41 -51
-24 -76 -3 -41 35 19 21 16 21 48 6z m80 -36 c-11 -2 -26 -9 -33 -14 -9 -8
-11 -7 -6 5 6 17 33 27 49 18 6 -3 1 -7 -10 -9z m-629 -323 c8 -17 20 -58 25
-91 9 -58 52 -158 67 -158 14 0 52 67 47 82 -5 12 0 14 22 11 25 -5 24 -2 -14
23 -42 28 -61 54 -25 35 41 -23 136 -61 150 -61 8 0 12 -3 9 -7 -4 -3 -2 -11
3 -18 7 -8 2 -15 -16 -24 -22 -10 -25 -16 -20 -41 3 -17 2 -30 -3 -30 -15 0
-18 47 -5 71 16 29 17 39 4 39 -5 0 -19 -18 -30 -40 -11 -22 -18 -40 -14 -40
3 0 -2 -8 -12 -17 -16 -16 -16 -18 -2 -21 9 -2 19 -13 23 -25 l8 -22 4 23 c3
15 10 22 21 20 28 -5 40 -116 41 -381 1 -193 -1 -248 -10 -245 -7 2 -35 56
-62 119 -46 108 -217 545 -217 555 0 3 9 0 20 -6 16 -9 13 0 -14 37 -43 60
-65 161 -46 218 13 39 23 38 46 -6z m363 -173 c7 -8 10 -19 7 -24 -8 -13 86
-62 117 -62 33 0 41 -33 33 -133 -36 -458 -54 -711 -60 -857 -2 -46 -8 -86
-13 -87 -5 -2 -16 16 -25 39 -9 24 -36 88 -61 143 l-44 100 -6 352 -5 351 29
28 c16 15 29 36 29 45 0 10 7 22 15 26 12 7 6 18 -28 56 -24 26 -42 49 -39 52
6 6 36 -11 51 -29z m190 -1342 c8 -7 -105 -103 -121 -104 -10 0 -18 -4 -18
-10 0 -5 5 -10 12 -10 9 0 8 -3 -1 -12 -11 -10 -14 -10 -18 0 -3 6 -11 12 -19
12 -8 0 -14 4 -14 10 0 20 -41 3 -70 -28 -16 -18 -38 -32 -49 -32 -27 0 -38
-20 -17 -32 31 -17 5 -28 -67 -28 -46 0 -83 6 -102 16 -22 12 -46 14 -90 10
-65 -7 -96 3 -78 26 6 7 13 25 17 40 4 17 15 30 29 33 37 9 168 10 232 1 58
-8 61 -7 93 22 17 16 32 35 32 41 0 6 4 11 9 11 5 0 11 9 14 20 4 16 15 19 78
22 71 3 140 -1 148 -8z m-199 -134 c0 -5 -2 -10 -4 -10 -3 0 -8 5 -11 10 -3 6
-1 10 4 10 6 0 11 -4 11 -10z m-372 -157 l37 -17 -47 -4 c-49 -3 -93 12 -83
29 9 14 52 11 93 -8z m268 -90 c-4 -4 -55 -8 -114 -10 l-107 -1 95 9 c52 4
102 10 110 12 18 4 26 -1 16 -10z m-405 -45 c11 -21 11 -22 -4 -9 -10 7 -17
17 -17 22 0 15 9 10 21 -13z"></path>
<path d="M3040 1990 c33 -11 80 -12 80 -2 0 4 -24 8 -53 8 -38 1 -45 -1 -27
-6z"></path>
<path d="M2754 1855 c20 -15 103 -31 113 -22 3 4 3 13 0 22 -5 11 -22 15 -69
15 -57 -1 -61 -2 -44 -15z"></path>
<path d="M4837 2304 c-3 -3 -30 -8 -58 -11 -33 -3 -67 -14 -88 -29 -20 -13
-42 -24 -51 -24 -20 -1 -52 -25 -43 -33 3 -4 15 -7 25 -7 10 0 18 -6 18 -14 0
-29 28 -25 34 4 4 24 13 31 45 40 22 6 43 15 46 20 3 6 14 10 23 10 19 1 68
38 60 45 -3 3 -7 2 -11 -1z"></path>
<path d="M4575 2060 c28 -12 73 -12 80 0 4 6 -14 10 -47 9 -39 0 -48 -3 -33
-9z"></path>
<path d="M4620 2000 c0 -5 23 -10 50 -10 28 0 50 -4 50 -10 0 -5 13 -10 29
-10 15 0 45 -11 65 -25 27 -18 44 -23 66 -18 32 6 35 10 22 31 -5 8 -16 10
-27 6 -14 -6 -16 -4 -10 6 6 10 3 12 -13 8 -12 -4 -22 -3 -22 2 0 10 -104 30
-162 30 -26 0 -48 -4 -48 -10z"></path>
<path d="M4763 1930 c1 -14 8 -20 24 -20 28 0 30 16 4 30 -27 14 -30 13 -28
-10z"></path>
</g>
</svg>
