<svg width="16" height="16" viewBox="0 0 16 16" fill="none" xmlns="http://www.w3.org/2000/svg">
<path d="M6.21859 0C2.78447 0 0 2.78447 0 6.21861C0 9.65275 2.78447 12.4372 6.21861 12.4372C7.53917 12.4372 8.76385 12.0253 9.77054 11.3237L9.77127 11.323L14.3833 15.935C14.4689 16.0206 14.6049 16.0228 14.6927 15.935L15.9357 14.692C16.0213 14.6064 16.0169 14.4645 15.935 14.3826L11.3237 9.77127C12.0253 8.76385 12.4372 7.53914 12.4372 6.21861C12.4372 2.78447 9.65273 0 6.21859 0ZM6.21859 10.974C3.59213 10.974 1.46318 8.84507 1.46318 6.21861C1.46318 3.59216 3.59216 1.46321 6.21859 1.46321C8.84501 1.46321 10.974 3.59216 10.974 6.21861C10.974 8.84507 8.84504 10.974 6.21859 10.974Z" fill="#D4DAE6"/>
</svg>
